<svg xmlns="http://www.w3.org/2000/svg" width="76.473" height="76.473" viewBox="0 0 76.473 76.473">
  <g id="Group_68" data-name="Group 68" transform="translate(-743.127 -5910.264)">
    <path id="Path_104" data-name="Path 104" d="M793.626,5986.737H769.1a26,26,0,0,1-25.973-25.973v-24.528a26,26,0,0,1,25.973-25.972h24.527a26,26,0,0,1,25.973,25.972v24.528A26,26,0,0,1,793.626,5986.737ZM769.1,5913.264a23,23,0,0,0-22.973,22.972v24.528a23,23,0,0,0,22.973,22.974h24.527a23,23,0,0,0,22.973-22.973v-24.528a23,23,0,0,0-22.973-22.972Z" fill="#393d4a"/>
    <g id="Group_51" data-name="Group 51">
      <path id="Path_105" data-name="Path 105" d="M763.65,5969.587a1.687,1.687,0,0,1-1.687-1.687v-39.432a6.967,6.967,0,0,1,6.959-6.958h30.153a1.686,1.686,0,0,1,1.687,1.687V5962a1.687,1.687,0,1,1-3.374,0v-37.111H768.922a3.589,3.589,0,0,0-3.585,3.584V5967.9a1.687,1.687,0,0,1-1.687,1.687Zm0,0" fill="#393d4a"/>
      <path id="Path_106" data-name="Path 106" d="M799.075,5975.491H769.554a7.591,7.591,0,1,1,0-15.182h29.521a1.687,1.687,0,1,1,0,3.373H769.554a4.218,4.218,0,1,0,0,8.435h29.521a1.687,1.687,0,0,1,0,3.375Zm0,0" fill="#393d4a"/>
      <path id="Path_107" data-name="Path 107" d="M799.075,5969.587H769.554a1.687,1.687,0,1,1,0-3.374h29.521a1.687,1.687,0,0,1,0,3.375Zm0,0" fill="#393d4a"/>
      <path id="Path_108" data-name="Path 108" d="M771.241,5963.682a1.688,1.688,0,0,1-1.687-1.687v-38.8a1.687,1.687,0,0,1,3.374,0V5962a1.687,1.687,0,0,1-1.687,1.687Zm0,0" fill="#393d4a"/>
    </g>
  </g>
</svg>
