<svg xmlns="http://www.w3.org/2000/svg" width="76.473" height="76.473" viewBox="0 0 76.473 76.473">
  <g id="Group_71" data-name="Group 71" transform="translate(-431.357 -5910.428)">
    <path id="Path_115" data-name="Path 115" d="M481.857,5986.9H457.33a26,26,0,0,1-25.973-25.972V5936.4a26,26,0,0,1,25.973-25.972h24.527A26,26,0,0,1,507.83,5936.4v24.528a26,26,0,0,1-25.973,25.973Zm-24.527-73.472a23,23,0,0,0-22.973,22.972v24.528A23,23,0,0,0,457.33,5983.9h24.527a23,23,0,0,0,22.973-22.972V5936.4a23,23,0,0,0-22.973-22.972Z" fill="#393d4a"/>
    <g id="Group_63" data-name="Group 63">
      <g id="Group_62" data-name="Group 62">
        <path id="Path_116" data-name="Path 116" d="M463.435,5961.823a5.9,5.9,0,1,0,5.9,5.9,5.9,5.9,0,0,0-5.9-5.9Z" fill="#393d4a"/>
        <path id="Path_117" data-name="Path 117" d="M480.663,5961.823a5.9,5.9,0,1,0,5.9,5.9,5.9,5.9,0,0,0-5.9-5.9Z" fill="#393d4a"/>
        <path id="Path_118" data-name="Path 118" d="M490.724,5955.8H459.941l-.6-3.494h25.3a1.806,1.806,0,0,0,1.687-1.145l6.024-15.181a1.81,1.81,0,0,0-1.687-2.471H456.206l-1.446-8.313a1.807,1.807,0,0,0-1.807-1.505h-6.928a1.807,1.807,0,0,0,0,3.614h5.422l5.18,30.6a1.808,1.808,0,0,0,1.808,1.506h32.289a1.807,1.807,0,0,0,0-3.614Z" fill="#393d4a"/>
      </g>
    </g>
  </g>
</svg>
