<svg xmlns="http://www.w3.org/2000/svg" width="76.473" height="76.473" viewBox="0 0 76.473 76.473">
  <g id="Group_69" data-name="Group 69" transform="translate(-587.242 -5910.264)">
    <g id="Group_57" data-name="Group 57">
      <rect id="Rectangle_38" data-name="Rectangle 38" width="36.484" height="9.841" rx="4.92" transform="translate(600.051 5928.817)" fill="#393d4a"/>
      <rect id="Rectangle_39" data-name="Rectangle 39" width="10.932" height="9.841" rx="4.92" transform="translate(640.786 5928.817)" fill="#393d4a"/>
      <rect id="Rectangle_40" data-name="Rectangle 40" width="51.667" height="9.841" rx="4.92" transform="translate(600.051 5943.58)" fill="#393d4a"/>
      <rect id="Rectangle_41" data-name="Rectangle 41" width="39.478" height="9.841" rx="4.92" transform="translate(612.241 5958.342)" fill="#393d4a"/>
      <rect id="Rectangle_42" data-name="Rectangle 42" width="9.841" height="9.841" rx="4.92" transform="translate(600.094 5958.342)" fill="#393d4a"/>
    </g>
    <path id="Path_112" data-name="Path 112" d="M637.742,5986.737H613.215a26,26,0,0,1-25.973-25.973v-24.528a26,26,0,0,1,25.973-25.972h24.527a26,26,0,0,1,25.973,25.972v24.528A26,26,0,0,1,637.742,5986.737Zm-24.527-73.473a23,23,0,0,0-22.973,22.973v24.527a23,23,0,0,0,22.973,22.973h24.527a23,23,0,0,0,22.973-22.973v-24.528a23,23,0,0,0-22.973-22.972Z" fill="#393d4a"/>
  </g>
</svg>
