<svg xmlns="http://www.w3.org/2000/svg" xmlns:xlink="http://www.w3.org/1999/xlink" width="523.541" height="534.969" viewBox="0 0 523.541 534.969">
  <defs>
    <filter id="Rectangle_2" x="0" y="89.69" width="445.278" height="445.279" filterUnits="userSpaceOnUse">
      <feOffset dx="7" dy="7" input="SourceAlpha"/>
      <feGaussianBlur stdDeviation="19" result="blur"/>
      <feFlood flood-color="#f84b63" flood-opacity="0.329"/>
      <feComposite operator="in" in2="blur"/>
      <feComposite in="SourceGraphic"/>
    </filter>
  </defs>
  <g id="Group_22" data-name="Group 22" transform="translate(-310.899 -261.604)">
    <g transform="matrix(1, 0, 0, 1, 310.9, 261.6)" filter="url(#Rectangle_2)">
      <rect id="Rectangle_2-2" data-name="Rectangle 2" width="326.278" height="326.278" rx="163.139" transform="translate(52.5 142.19)" fill="#f84b63" stroke="#013d55" stroke-miterlimit="10" stroke-width="5"/>
    </g>
    <path id="Path_2" data-name="Path 2" d="M560.987,539.759c-3.063,9.694.014,19.308,6.87,21.474s14.9-3.936,17.96-13.63-.014-19.309-6.87-21.475S564.049,530.065,560.987,539.759Z" fill="#013d55"/>
    <path id="Path_3" data-name="Path 3" d="M490.658,612.862a3.465,3.465,0,0,1-1.057-.163c-16.675-5.144-31.558-11.343-30.561-30.419.641-12.2,8.747-16.787,18.135-22.094,6.524-3.688,13.919-7.87,21.851-15.5a3.6,3.6,0,0,1,4.989,5.181c-8.592,8.265-16.75,12.877-23.3,16.581-9.748,5.513-14.078,8.284-14.494,16.212-.669,12.809,7.689,17.679,25.5,23.176a3.6,3.6,0,0,1-1.058,7.031Z" fill="#013d55"/>
    <path id="Path_4" data-name="Path 4" d="M505.051,640.128c15.593-.787,30.938,4.015,46.255,14.39a3.592,3.592,0,1,1-4.029,5.948c-28.2-19.1-55.455-17.641-85.747,4.609a3.594,3.594,0,1,1-4.256-5.792C473.6,647.3,489.449,640.916,505.051,640.128Z" fill="#013d55"/>
    <path id="Path_5" data-name="Path 5" d="M565.767,477.2c-9.326,12.678,2.451,19.275,29.506,33.675,20.137,10.719,35.8,17.425,39.724,11.4s-8.394-21-27.511-33.449S574.083,465.9,565.767,477.2Z" fill="#013d55"/>
    <path id="Path_6" data-name="Path 6" d="M518.3,478.873c-.188,15.739-13.563,13.914-43.834,9.122-22.531-3.567-39.075-7.643-38.579-14.817s19.346-11.714,42.1-10.141S518.466,464.841,518.3,478.873Z" fill="#013d55"/>
    <path id="Path_7" data-name="Path 7" d="M458.1,511.272c-3.062,9.694.014,19.308,6.87,21.474s14.9-3.937,17.96-13.631-.013-19.308-6.87-21.474S461.16,501.578,458.1,511.272Z" fill="#013d55"/>
    <circle id="Ellipse_1" data-name="Ellipse 1" cx="38.339" cy="38.339" r="38.339" transform="translate(579.954 583.309)" fill="#ff9498" opacity="0.5"/>
    <g id="Group_4" data-name="Group 4">
      <path id="Path_8" data-name="Path 8" d="M420.492,445.279c-13.455-3.6-20.12-7.115-19.871-10.509.363-4.874,14.863-7.9,43.1-8.994a.711.711,0,0,1,.054,1.42c-30.437,1.18-41.518,4.741-41.733,7.681-.219,2.894,9.971,7.98,39.2,13.566,25.945,4.955,60.62,9.194,97.634,11.937,82.534,6.117,138.558,2.321,139.106-5.06.259-3.444-13.137-9.386-51.511-15.756a.686.686,0,0,1-.583-.815.706.706,0,0,1,.815-.585c24.324,4.035,53.213,10.3,52.7,17.261-.777,10.454-72.11,11.45-140.627,6.374-37.068-2.748-71.8-7-97.8-11.961Q428.957,447.54,420.492,445.279Z" fill="#013d55"/>
      <path id="Path_9" data-name="Path 9" d="M410.629,411.447l1.652,3.865,4.163.587-3.166,2.766.729,4.139-3.609-2.158-3.713,1.975.938-4.1L404.6,415.6l4.189-.373Z" fill="#013d55" fill-rule="evenodd"/>
      <path id="Path_10" data-name="Path 10" d="M406.5,423.306a.71.71,0,0,1-.51-.845l.85-3.708-2.736-2.644a.709.709,0,0,1,.43-1.218l3.788-.339,1.668-3.416a.709.709,0,0,1,1.291.031l1.494,3.5,3.767.532a.71.71,0,0,1,.368,1.236l-2.866,2.5.661,3.747a.71.71,0,0,1-1.063.733l-3.267-1.954-3.36,1.787A.7.7,0,0,1,406.5,423.306Zm-.293-7.139,1.907,1.843a.711.711,0,0,1,.2.669l-.592,2.583,2.341-1.244a.708.708,0,0,1,.7.018l2.277,1.36-.46-2.609a.706.706,0,0,1,.232-.657l2-1.747-2.625-.369a.693.693,0,0,1-.554-.423l-1.042-2.436-1.16,2.38a.711.711,0,0,1-.577.4Z" fill="#013d55"/>
      <path id="Path_11" data-name="Path 11" d="M684.266,465.063l1.649,3.868,4.165.586-3.169,2.765.729,4.142-3.607-2.159-3.712,1.973.935-4.1-3.021-2.922,4.186-.374Z" fill="#013d55" fill-rule="evenodd"/>
      <path id="Path_12" data-name="Path 12" d="M680.138,476.924a.735.735,0,0,1-.249-.123.712.712,0,0,1-.26-.723l.845-3.707-2.733-2.643a.711.711,0,0,1,.429-1.219l3.788-.338,1.671-3.421a.71.71,0,0,1,1.291.034l1.491,3.5,3.769.53a.711.711,0,0,1,.366,1.239l-2.865,2.5.659,3.746a.71.71,0,0,1-1.065.733l-3.263-1.952-3.358,1.785A.714.714,0,0,1,680.138,476.924Zm-.293-7.138,1.905,1.843a.715.715,0,0,1,.2.669l-.592,2.583,2.343-1.244a.714.714,0,0,1,.7.019l2.272,1.358-.458-2.61a.711.711,0,0,1,.233-.66l2-1.74-2.627-.37a.723.723,0,0,1-.555-.424l-1.039-2.439-1.162,2.384a.716.716,0,0,1-.576.4Z" fill="#013d55"/>
      <path id="Path_13" data-name="Path 13" d="M639.6,431.561l.67,1.571,1.691.238-1.284,1.123.3,1.682L639.5,435.3l-1.506.8.38-1.664-1.227-1.187,1.7-.152Z" fill="#013d55" fill-rule="evenodd"/>
      <path id="Path_14" data-name="Path 14" d="M637.812,436.785a.683.683,0,0,1-.249-.123.71.71,0,0,1-.26-.722l.292-1.274-.939-.91a.708.708,0,0,1,.43-1.217l1.3-.117.573-1.172a.709.709,0,0,1,1.292.031l.512,1.2,1.295.182a.709.709,0,0,1,.367,1.238l-.983.86.227,1.288a.708.708,0,0,1-.3.707.7.7,0,0,1-.766.026l-1.124-.671-1.156.613A.706.706,0,0,1,637.812,436.785Zm.947-2.969.11.106a.717.717,0,0,1,.2.669l-.036.152.136-.073a.715.715,0,0,1,.7.018l.135.08-.027-.153a.706.706,0,0,1,.232-.657l.117-.1-.155-.023a.714.714,0,0,1-.555-.423l-.06-.142-.065.136a.713.713,0,0,1-.577.4Z" fill="#013d55"/>
      <path id="Path_15" data-name="Path 15" d="M395.8,442.968l.671,1.569,1.691.239-1.286,1.124.3,1.682L395.7,446.7l-1.506.8.379-1.665-1.226-1.186,1.7-.155Z" fill="#013d55" fill-rule="evenodd"/>
      <path id="Path_16" data-name="Path 16" d="M394.014,448.192a.683.683,0,0,1-.249-.123.713.713,0,0,1-.261-.723l.291-1.272-.937-.908a.71.71,0,0,1,.429-1.219l1.3-.116.574-1.174a.708.708,0,0,1,1.291.032l.513,1.2,1.294.183a.71.71,0,0,1,.367,1.238l-.982.86.226,1.288a.713.713,0,0,1-.3.709.728.728,0,0,1-.769.023l-1.122-.672-1.154.614A.7.7,0,0,1,394.014,448.192Zm.946-2.969.111.109a.716.716,0,0,1,.2.669l-.036.147.137-.071a.7.7,0,0,1,.7.016l.132.08-.026-.151a.706.706,0,0,1,.232-.657l.117-.1-.154-.023a.7.7,0,0,1-.554-.424l-.061-.142-.067.139a.711.711,0,0,1-.574.4Z" fill="#013d55"/>
      <g id="Group_2" data-name="Group 2">
        <path id="Path_17" data-name="Path 17" d="M706.414,491.719a.712.712,0,0,1-.5-.87l.4-1.493-1.491-.4a.711.711,0,0,1,.367-1.373l1.491.4.4-1.49a.711.711,0,0,1,1.374.367l-.4,1.49,1.492.4a.71.71,0,0,1-.367,1.372l-1.492-.4-.4,1.493A.712.712,0,0,1,706.414,491.719Z" fill="#013d55"/>
      </g>
      <g id="Group_3" data-name="Group 3">
        <path id="Path_18" data-name="Path 18" d="M446.934,402.908a.712.712,0,0,1-.5-.869l.4-1.493-1.492-.4a.71.71,0,1,1,.367-1.372l1.492.4.4-1.493a.71.71,0,0,1,1.372.367l-.4,1.493,1.493.4a.711.711,0,0,1-.367,1.373l-1.493-.4-.4,1.493A.712.712,0,0,1,446.934,402.908Z" fill="#013d55"/>
      </g>
    </g>
    <g id="Group_5" data-name="Group 5">
      <path id="Path_19" data-name="Path 19" d="M602.8,263.164H477.229a10.955,10.955,0,0,0-10.919,10.917v90.163a10.951,10.951,0,0,0,10.919,10.916h15.152l12.97,13.8a3.6,3.6,0,0,0,5.3,0l12.978-13.8H602.8a10.95,10.95,0,0,0,10.914-10.916V274.081A10.951,10.951,0,0,0,602.8,263.164Z" fill="#f84b63" fill-rule="evenodd"/>
      <path id="Path_20" data-name="Path 20" d="M508.009,391.682a5.171,5.171,0,0,1-3.8-1.656L491.7,376.72H477.229a12.491,12.491,0,0,1-12.479-12.476V274.081A12.492,12.492,0,0,1,477.229,261.6H602.8a12.491,12.491,0,0,1,12.476,12.477v90.163A12.491,12.491,0,0,1,602.8,376.72H524.3l-12.515,13.313A5.146,5.146,0,0,1,508.009,391.682Zm-30.78-126.958a9.368,9.368,0,0,0-9.357,9.357v90.163a9.368,9.368,0,0,0,9.357,9.356h15.152a1.555,1.555,0,0,1,1.137.492l12.97,13.8a2.091,2.091,0,0,0,3.025.005l12.978-13.8a1.555,1.555,0,0,1,1.137-.492H602.8a9.365,9.365,0,0,0,9.354-9.356V274.081a9.366,9.366,0,0,0-9.354-9.357Z" fill="#013d55"/>
    </g>
    <g id="Group_6" data-name="Group 6">
      <path id="Path_21" data-name="Path 21" d="M589.577,353.327H494.044a2.233,2.233,0,0,1-1.832-3.506l47.74-68.573a2.243,2.243,0,0,1,1.831-.956h0a2.246,2.246,0,0,1,1.832.956l47.48,68.213a2.23,2.23,0,0,1-1.518,3.866Zm-91.266-4.46h86.938l-43.466-62.442Z" fill="#013d55"/>
    </g>
    <g id="Group_7" data-name="Group 7">
      <path id="Path_22" data-name="Path 22" d="M541.783,338.019a2.231,2.231,0,0,1-2.232-2.23v-1.448a2.231,2.231,0,0,1,4.463,0v1.448A2.23,2.23,0,0,1,541.783,338.019Zm0-9.068a2.231,2.231,0,0,1-2.232-2.23V305.7a2.231,2.231,0,1,1,4.463,0v21.021A2.229,2.229,0,0,1,541.783,328.951Z" fill="#013d55"/>
    </g>
    <g id="Group_12" data-name="Group 12">
      <path id="Path_23" data-name="Path 23" d="M628.41,564.4s13.967,2.876,27.144-13.048,21.081-27.064,42.98-13.32c17.153,10.764,44.359,6.654,46.789-15.706,1.635-15.064-13.46-43.66-17.065-62.27-15.787-81.528,78.147-92.6,101.214-12.364,19.761,68.7-34.64,142.451-101.17,124.731-36.44-9.7-35.514-29.284-61.578-14.717C637.155,574.225,628.41,564.4,628.41,564.4Z" fill="#f84b63" fill-rule="evenodd"/>
      <g id="Group_10" data-name="Group 10">
        <g id="Group_9" data-name="Group 9">
          <g id="Group_8" data-name="Group 8">
            <path id="Path_24" data-name="Path 24" d="M770.629,451.342a1.936,1.936,0,0,1-1.488-.127l-2.922-1.5-1.507,2.918a1.951,1.951,0,0,1-3.469-1.788l1.507-2.921-2.922-1.5a1.951,1.951,0,0,1,1.788-3.469l2.922,1.5,1.507-2.919a1.951,1.951,0,0,1,3.469,1.788l-1.507,2.921,2.922,1.5a1.954,1.954,0,0,1-.3,3.6Z" fill="#013d55"/>
          </g>
        </g>
      </g>
      <g id="Group_11" data-name="Group 11">
        <path id="Path_25" data-name="Path 25" d="M805.39,440.229a1.937,1.937,0,0,1-1.49-.126l-2.917-1.5-1.508,2.919a1.951,1.951,0,0,1-3.469-1.788l1.5-2.917-2.919-1.508a1.952,1.952,0,1,1,1.789-3.469l2.921,1.5,1.5-2.917a1.952,1.952,0,1,1,3.47,1.788l-1.5,2.922,2.919,1.5a1.953,1.953,0,0,1-.3,3.6Z" fill="#013d55"/>
      </g>
    </g>
    <g id="Group_13" data-name="Group 13">
      <path id="Path_26" data-name="Path 26" d="M787.667,459.3l3.211-1.026c2.209-.706,3.626.935,5.948.768,2.683-.192,6.268-2.06,4.682-7.021s-5.589-4.4-7.886-3c-1.988,1.211-2.191,3.368-4.4,4.074l-3.211,1.027c-2.21.706-3.627-.933-5.947-.767-2.687.194-6.269,2.06-4.683,7.02s5.586,4.4,7.887,3C785.254,462.165,785.456,460.006,787.667,459.3Z" fill="#013d55" fill-rule="evenodd"/>
    </g>
    <g id="Group_16" data-name="Group 16">
      <g id="Group_15" data-name="Group 15">
        <g id="Group_14" data-name="Group 14">
          <path id="Path_27" data-name="Path 27" d="M810.562,479.758a.977.977,0,0,1-.976-.976V461.217a.977.977,0,0,1,1.953,0v17.565A.976.976,0,0,1,810.562,479.758Z" fill="#013d55"/>
        </g>
      </g>
    </g>
    <g id="Group_19" data-name="Group 19">
      <g id="Group_18" data-name="Group 18">
        <g id="Group_17" data-name="Group 17">
          <path id="Path_28" data-name="Path 28" d="M749.45,435.938a.981.981,0,0,1-1.23-.634l-4.3-13.467a.977.977,0,0,1,1.862-.6l4.3,13.467A.98.98,0,0,1,749.45,435.938Z" fill="#013d55"/>
        </g>
      </g>
    </g>
    <g id="Group_20" data-name="Group 20">
      <path id="Path_29" data-name="Path 29" d="M754.885,431.306a.981.981,0,0,1-1.228-.635l-3.465-10.84a.976.976,0,0,1,1.859-.6l3.466,10.841A.981.981,0,0,1,754.885,431.306Z" fill="#013d55"/>
    </g>
    <g id="Group_21" data-name="Group 21">
      <path id="Path_30" data-name="Path 30" d="M770.919,572.53a75.157,75.157,0,0,1-42.869.836c-14.525-3.871-23.055-9.222-29.91-13.519-8.136-5.1-13.049-8.181-22.188-5.259a48.2,48.2,0,0,0-8.751,3.966,93.1,93.1,0,0,1-16.724,7.517c-16.847,5.386-22.559-.762-22.8-1.026a.981.981,0,0,1-.116-1.136.994.994,0,0,1,1.039-.469,21.83,21.83,0,0,0,9.934-1.034c5.955-1.9,11.425-5.834,16.266-11.679l1.43-1.734c6.9-8.374,12.345-14.984,19.588-17.3,6.535-2.09,13.918-.341,23.231,5.507,8.65,5.425,20.221,7.024,29.479,4.064,9.19-2.938,14.806-9.7,15.822-19.047.956-8.821-4.1-22.76-8.986-36.238-3.25-8.963-6.611-18.232-8.066-25.743-7.677-39.644,10.725-60.464,28.816-66.248,12.1-3.867,25.6-2.341,38.032,4.3,16.865,9.013,29.743,26.461,36.262,49.131C845.295,499.175,817.5,557.636,770.919,572.53Zm-95.562-19.8c10-3.2,15.8.437,23.821,5.468,6.743,4.227,15.137,9.491,29.375,13.282a73.206,73.206,0,0,0,41.772-.806c45.615-14.582,72.816-71.927,58.208-122.713-6.369-22.159-18.91-39.185-35.306-47.945-11.958-6.39-24.926-7.87-36.516-4.165-18.161,5.806-34.92,25.675-27.494,64.02,1.425,7.362,4.76,16.555,7.984,25.446,4.967,13.688,10.1,27.845,9.093,37.114-1.1,10.159-7.2,17.507-17.17,20.694-9.782,3.127-21.992,1.454-31.107-4.265-8.792-5.518-15.658-7.2-21.6-5.3-6.7,2.142-11.983,8.558-18.675,16.682l-1.434,1.735c-5.081,6.14-10.859,10.277-17.174,12.3a27.263,27.263,0,0,1-6.616,1.268c3.1.974,8.58,1.487,17.367-1.322a91.112,91.112,0,0,0,16.365-7.365A50.285,50.285,0,0,1,675.357,552.726Z" fill="#013d55"/>
    </g>
  </g>
</svg>
