<svg xmlns="http://www.w3.org/2000/svg" width="849.916" height="844.55" viewBox="0 0 849.916 844.55">
  <g id="Group_3126" data-name="Group 3126" transform="translate(-201.389 -147.449)">
    <g id="Group_9" data-name="Group 9" transform="translate(-1256 -50.101)">
      <g id="Group_3050" data-name="Group 3050">
        <g id="Group_3042" data-name="Group 3042">
          <g id="Group_3038" data-name="Group 3038">
            <g id="Group_3037" data-name="Group 3037">
              <g id="Group_3036" data-name="Group 3036">
                <path id="Path_547" data-name="Path 547" d="M1513.392,309.183l119.734-20.862-17.367-82.253L1496.024,226.93Z" fill="#c8c8c8"/>
                <path id="Path_548" data-name="Path 548" d="M1571.654,204.921l42.306-7.371,1.8,8.518-44.736,7.795Z" fill="#c8c8c8"/>
              </g>
            </g>
          </g>
          <g id="Group_3041" data-name="Group 3041">
            <g id="Group_3040" data-name="Group 3040">
              <g id="Group_3039" data-name="Group 3039">
                <path id="Path_549" data-name="Path 549" d="M1513.517,309.162,1633.251,288.3l-7.967-76.815-119.734,20.862Z" fill="#dcdcdc"/>
                <path id="Path_550" data-name="Path 550" d="M1582.153,210.9l42.305-7.371.825,7.955-44.736,7.795Z" fill="#dcdcdc"/>
              </g>
            </g>
          </g>
        </g>
        <g id="Group_3049" data-name="Group 3049">
          <g id="Group_3045" data-name="Group 3045">
            <g id="Group_3044" data-name="Group 3044">
              <g id="Group_3043" data-name="Group 3043">
                <path id="Path_551" data-name="Path 551" d="M1564.756,391.4l148.378,9.173,2.689-102.792-148.378-9.173Z" fill="#dcdcdc"/>
                <path id="Path_552" data-name="Path 552" d="M1663.676,283.9l52.426,3.241-.279,10.645-55.438-3.427Z" fill="#dcdcdc"/>
              </g>
            </g>
          </g>
          <g id="Group_3048" data-name="Group 3048">
            <g id="Group_3047" data-name="Group 3047">
              <g id="Group_3046" data-name="Group 3046">
                <path id="Path_553" data-name="Path 553" d="M1564.911,391.415l148.378,9.173,12.329-93.654-148.378-9.173Z" fill="#ececec"/>
                <path id="Path_554" data-name="Path 554" d="M1674.469,293.994l52.426,3.241-1.277,9.7-55.438-3.427Z" fill="#ececec"/>
              </g>
            </g>
          </g>
        </g>
      </g>
      <g id="Group_3051" data-name="Group 3051">
        <path id="Path_555" data-name="Path 555" d="M1892.267,1020.746c0,11.794-92.41,21.354-206.4,21.354s-206.4-9.56-206.4-21.354,92.409-21.355,206.4-21.355S1892.267,1008.952,1892.267,1020.746Z" fill="#ececec"/>
      </g>
      <line id="Line_1" data-name="Line 1" x2="848.916" transform="translate(1457.889 968.999)" fill="none" stroke="#1a2e35" stroke-linecap="round" stroke-linejoin="round" stroke-width="1"/>
      <g id="Group_3069" data-name="Group 3069">
        <g id="Group_3068" data-name="Group 3068">
          <path id="Path_556" data-name="Path 556" d="M2126.387,241.269H1805.052c-17.944,0-32.5,14.808-32.5,33.112V935.887c0,18.267,14.56,33.112,32.5,33.112h321.335c17.962,0,32.542-14.845,32.542-33.112V274.381C2158.929,256.077,2144.349,241.269,2126.387,241.269Zm12.222,674.165c0,17.412-13.04,31.5-29.121,31.5h-287.48c-16.119,0-29.159-14.085-29.159-31.5V299.453c0-35.469,13.04-37.2,29.159-37.2h57.575c3.346,0,6.083,3.8,6.083,8.516V272.8c0,11.043,6.045,11.081,13.477,11.081h133.172c7.489,0,13.477-.038,13.477-11.081V270.77c0-4.714,2.7-8.516,6.1-8.516h57.595c16.081,0,29.121,4.714,29.121,37.2Z" fill="#2b454e"/>
          <path id="Path_557" data-name="Path 557" d="M1983.894,270.091h-36.326a2.244,2.244,0,0,1-2.244-2.244h0a2.244,2.244,0,0,1,2.244-2.243h36.326a2.243,2.243,0,0,1,2.243,2.243h0A2.243,2.243,0,0,1,1983.894,270.091Z" fill="#1a2e35"/>
          <line id="Line_2" data-name="Line 2" x1="1.084" transform="translate(1791.766 876.391)" fill="none"/>
          <g id="Group_3067" data-name="Group 3067">
            <path id="Path_558" data-name="Path 558" d="M2138.614,299.453V915.434c0,17.412-13.04,31.5-29.121,31.5H1822.012c-16.119,0-29.158-14.085-29.158-31.5V299.453c0-35.469,13.039-37.2,29.158-37.2h57.576c3.346,0,6.083,3.8,6.083,8.516V272.8c0,11.043,6.045,11.081,13.477,11.081h133.171c7.489,0,13.477-.038,13.477-11.081V270.77c0-4.714,2.7-8.516,6.1-8.516h57.595C2125.574,262.254,2138.614,266.968,2138.614,299.453Z" fill="#fff"/>
            <path id="Path_559" data-name="Path 559" d="M2138.6,299.453v77.013h-345.76V299.453c0-35.469,13.04-37.2,29.159-37.2H1879.6c3.345,0,6.082,3.8,6.082,8.516V272.8c0,11.043,6.045,11.081,13.458,11.081H2032.31c7.489,0,13.5-.038,13.5-11.081V270.77c0-4.714,2.7-8.516,6.1-8.516h57.576C2125.564,262.254,2138.6,266.968,2138.6,299.453Z" fill="#f84b63"/>
            <g id="Group_3053" data-name="Group 3053">
              <path id="Path_560" data-name="Path 560" d="M1827.846,342.516l-10.215-9.571,10.215-9.57,1.585,1.688-8.412,7.882,8.412,7.884Z" fill="#fff"/>
              <g id="Group_3052" data-name="Group 3052">
                <path id="Path_561" data-name="Path 561" d="M2111.836,326.984a2.01,2.01,0,1,1-2.01-2.009A2.01,2.01,0,0,1,2111.836,326.984Z" fill="#fff"/>
                <path id="Path_562" data-name="Path 562" d="M2111.836,334.131a2.01,2.01,0,1,1-2.01-2.009A2.01,2.01,0,0,1,2111.836,334.131Z" fill="#fff"/>
                <path id="Path_563" data-name="Path 563" d="M2111.836,341.278a2.01,2.01,0,1,1-2.01-2.009A2.01,2.01,0,0,1,2111.836,341.278Z" fill="#fff"/>
              </g>
            </g>
            <g id="Group_3057" data-name="Group 3057">
              <g id="u5Zjqx">
                <g id="Group_3054" data-name="Group 3054">
                  <path id="Path_564" data-name="Path 564" d="M1869.653,276.089l-.556.552c-.106.105-.21.211-.315.317a7.572,7.572,0,0,0-10.727.006c-.1-.1-.2-.21-.3-.313-.182-.185-.366-.369-.549-.553a.067.067,0,0,0-.017-.009v-.014c.014-.011.028-.021.041-.033.234-.208.462-.423.7-.623a8.656,8.656,0,0,1,3.783-1.761c.357-.066.718-.1,1.078-.144.122-.015.919-.018.943-.016.245.019.49.029.735.056a8.316,8.316,0,0,1,1.978.472,8.666,8.666,0,0,1,1.338.626,8.4,8.4,0,0,1,1.278.895c.2.171.391.352.587.528Z" fill="#fff"/>
                  <path id="Path_565" data-name="Path 565" d="M1859.82,278.707l-.88-.872a6.191,6.191,0,0,1,3.578-1.8,6.268,6.268,0,0,1,5.38,1.783l-.883.879a5.088,5.088,0,0,0-7.2.006Z" fill="#fff"/>
                  <path id="Path_566" data-name="Path 566" d="M1866.137,279.584l-.875.874a2.6,2.6,0,0,0-3.687.005c-.292-.293-.582-.583-.873-.873A3.819,3.819,0,0,1,1866.137,279.584Z" fill="#fff"/>
                </g>
                <path id="Path_567" data-name="Path 567" d="M1864.21,281.253a.79.79,0,1,1-.791-.79A.791.791,0,0,1,1864.21,281.253Z" fill="#fff"/>
              </g>
              <g id="Group_3055" data-name="Group 3055">
                <path id="Path_568" data-name="Path 568" d="M1815.4,277.77a2.292,2.292,0,1,1,2.292,2.292A2.292,2.292,0,0,1,1815.4,277.77Z" fill="#fff"/>
                <path id="Path_569" data-name="Path 569" d="M1822.615,277.77a2.291,2.291,0,1,1,2.291,2.292A2.291,2.291,0,0,1,1822.615,277.77Z" fill="#fff"/>
                <path id="Path_570" data-name="Path 570" d="M1829.832,277.77a2.292,2.292,0,1,1,2.292,2.292A2.292,2.292,0,0,1,1829.832,277.77Z" fill="#fff"/>
                <path id="Path_571" data-name="Path 571" d="M1837.05,277.77a2.291,2.291,0,1,1,2.291,2.292A2.291,2.291,0,0,1,1837.05,277.77Z" fill="#fff"/>
                <path id="Path_572" data-name="Path 572" d="M1844.267,277.77a2.292,2.292,0,1,1,2.292,2.292A2.292,2.292,0,0,1,1844.267,277.77Z" fill="#fff"/>
              </g>
              <g id="Group_3056" data-name="Group 3056">
                <path id="Path_573" data-name="Path 573" d="M2112.684,282.786H2094v-8.668h18.679Zm-17.7-.977h16.725V275.1h-16.725Z" fill="#fff"/>
                <rect id="Rectangle_39" data-name="Rectangle 39" width="12.025" height="5.706" transform="translate(2095.566 275.599)" fill="#fff"/>
                <rect id="Rectangle_40" data-name="Rectangle 40" width="1.659" height="4.622" transform="translate(2112.684 276.141)" fill="#fff"/>
              </g>
            </g>
            <g id="Group_3059" data-name="Group 3059">
              <path id="Path_574" data-name="Path 574" d="M1845.389,909.274h-2.629v12.072h-4.912v-6.152h-8.7v6.152h-4.912V909.274h-2.629l11.89-12.287Z" fill="#ececec"/>
              <g id="Group_3058" data-name="Group 3058">
                <rect id="Rectangle_41" data-name="Rectangle 41" width="28.659" height="4.095" transform="translate(2081.218 896.987)" fill="#ececec"/>
                <rect id="Rectangle_42" data-name="Rectangle 42" width="28.659" height="4.095" transform="translate(2081.218 907.12)" fill="#ececec"/>
                <rect id="Rectangle_43" data-name="Rectangle 43" width="28.659" height="4.095" transform="translate(2081.218 917.251)" fill="#ececec"/>
              </g>
              <path id="Path_575" data-name="Path 575" d="M1973.886,907.541l-8.149,8.7-8.147-8.7,1.437-1.35,6.71,7.161,6.712-7.161Z" fill="#ececec"/>
              <path id="Path_576" data-name="Path 576" d="M1965.738,925.222a14.8,14.8,0,1,1,14.8-14.8A14.82,14.82,0,0,1,1965.738,925.222Zm0-27.651a12.849,12.849,0,1,0,12.848,12.849A12.863,12.863,0,0,0,1965.738,897.571Z" fill="#ececec"/>
            </g>
            <g id="Group_3062" data-name="Group 3062">
              <rect id="Rectangle_44" data-name="Rectangle 44" width="274.08" height="217.717" transform="translate(1828.694 495.734)" fill="none" stroke="#ffc800" stroke-miterlimit="10" stroke-width="1" stroke-dasharray="4"/>
              <g id="Group_3061" data-name="Group 3061">
                <path id="Path_577" data-name="Path 577" d="M1863.689,632.428a26.288,26.288,0,0,0,24.33,26.211v.073h148.866a30.9,30.9,0,0,0,2.888-61.656A52.052,52.052,0,0,0,1938.9,580.778a30.5,30.5,0,0,0-13.813-3.267,30.883,30.883,0,0,0-30.835,28.982,25.781,25.781,0,0,0-4.274-.349A26.288,26.288,0,0,0,1863.689,632.428Z" fill="#f84b63"/>
                <g id="Group_3060" data-name="Group 3060">
                  <rect id="Rectangle_45" data-name="Rectangle 45" width="26.868" height="34.29" transform="translate(1952.299 624.422)" fill="#fff"/>
                  <path id="Path_578" data-name="Path 578" d="M1943.078,624.422h45.312l-22.656-22.6Z" fill="#fff"/>
                </g>
              </g>
            </g>
            <g id="Group_3066" data-name="Group 3066">
              <g id="Group_3063" data-name="Group 3063">
                <path id="Path_579" data-name="Path 579" d="M1937.529,750.887a4.5,4.5,0,0,1-4.506-4.506V740.83a.845.845,0,0,1,.857-.858.869.869,0,0,1,.873.858v5.551a2.775,2.775,0,0,0,5.551,0V740.83a.859.859,0,0,1,.874-.858.845.845,0,0,1,.856.858v5.551A4.508,4.508,0,0,1,1937.529,750.887Z" fill="#c8c8c8"/>
                <path id="Path_580" data-name="Path 580" d="M1945.533,752.976v-9.059a.833.833,0,0,1,.827-.827.857.857,0,0,1,.858.64,3.947,3.947,0,0,1,2.121-.64,3.868,3.868,0,0,1,3.773,3.914,3.828,3.828,0,0,1-3.773,3.867,3.6,3.6,0,0,1-2.09-.639v2.744a.88.88,0,0,1-.889.842A.856.856,0,0,1,1945.533,752.976Zm1.716-5.972a2.079,2.079,0,0,0,.608,1.559,1.929,1.929,0,0,0,1.482.655,1.992,1.992,0,0,0,1.465-.655,2.27,2.27,0,0,0,.608-1.559,2.4,2.4,0,0,0-.608-1.574,2.033,2.033,0,0,0-1.465-.64,1.967,1.967,0,0,0-1.482.64A2.188,2.188,0,0,0,1947.249,747Z" fill="#c8c8c8"/>
                <path id="Path_581" data-name="Path 581" d="M1956.486,739.972a.868.868,0,0,1,.872.858v9.2a.865.865,0,0,1-1.73,0v-9.2A.866.866,0,0,1,1956.486,739.972Z" fill="#c8c8c8"/>
                <path id="Path_582" data-name="Path 582" d="M1960.12,749.748a3.892,3.892,0,0,1-1.076-2.744,4.021,4.021,0,0,1,1.076-2.728,3.642,3.642,0,0,1,2.681-1.186,3.445,3.445,0,0,1,2.6,1.186A3.891,3.891,0,0,1,1966.5,747a3.771,3.771,0,0,1-1.092,2.744,3.442,3.442,0,0,1-2.6,1.186A3.638,3.638,0,0,1,1960.12,749.748Zm.623-2.744a2.527,2.527,0,0,0,.561,1.653,2.112,2.112,0,0,0,1.5.577,2.039,2.039,0,0,0,1.435-.577,2.4,2.4,0,0,0,.608-1.653,2.339,2.339,0,0,0-.608-1.621,2.2,2.2,0,0,0-1.435-.593,2.274,2.274,0,0,0-1.5.593A2.464,2.464,0,0,0,1960.743,747Z" fill="#c8c8c8"/>
                <path id="Path_583" data-name="Path 583" d="M1975.749,747v3.056a.833.833,0,0,1-.827.827.847.847,0,0,1-.81-.671,3.538,3.538,0,0,1-2.074.671,3.62,3.62,0,0,1-2.651-1.139,3.986,3.986,0,0,1-1.061-2.744,3.937,3.937,0,0,1,1.061-2.745,3.594,3.594,0,0,1,2.651-1.169,3.551,3.551,0,0,1,2.074.687.847.847,0,0,1,.81-.687.837.837,0,0,1,.827.843Zm-1.654,0a2.289,2.289,0,0,0-.608-1.606,1.925,1.925,0,0,0-1.449-.64,1.878,1.878,0,0,0-1.45.64,2.28,2.28,0,0,0-.593,1.606,2.333,2.333,0,0,0,.593,1.606,1.961,1.961,0,0,0,1.45.608,2.011,2.011,0,0,0,1.449-.608A2.344,2.344,0,0,0,1974.095,747Z" fill="#c8c8c8"/>
                <path id="Path_584" data-name="Path 584" d="M1985.874,750.045a.849.849,0,0,1-.843.842.841.841,0,0,1-.827-.671,3.806,3.806,0,0,1-2.12.671,3.9,3.9,0,0,1,0-7.8,3.7,3.7,0,0,1,2.09.655v-2.931a.85.85,0,0,1,1.7,0v9.231Zm-3.79-5.255a2.011,2.011,0,0,0-1.465.64,2.259,2.259,0,0,0,0,3.118,2.018,2.018,0,0,0,1.465.639,2,2,0,0,0,1.466-.639,2.26,2.26,0,0,0,0-3.118A1.989,1.989,0,0,0,1982.084,744.79Z" fill="#c8c8c8"/>
                <path id="Path_585" data-name="Path 585" d="M1990.089,748.672a1.179,1.179,0,0,1,1.169,1.17,1.165,1.165,0,0,1-1.169,1.154,1.151,1.151,0,0,1-1.155-1.154A1.166,1.166,0,0,1,1990.089,748.672Z" fill="#c8c8c8"/>
                <path id="Path_586" data-name="Path 586" d="M1993.678,748.672a1.179,1.179,0,0,1,1.169,1.17,1.165,1.165,0,0,1-1.169,1.154,1.151,1.151,0,0,1-1.154-1.154A1.165,1.165,0,0,1,1993.678,748.672Z" fill="#c8c8c8"/>
                <path id="Path_587" data-name="Path 587" d="M1997.266,748.672a1.179,1.179,0,0,1,1.169,1.17,1.165,1.165,0,0,1-1.169,1.154,1.151,1.151,0,0,1-1.154-1.154A1.165,1.165,0,0,1,1997.266,748.672Z" fill="#c8c8c8"/>
              </g>
              <g id="Group_3065" data-name="Group 3065">
                <rect id="Rectangle_46" data-name="Rectangle 46" width="242.714" height="15.327" transform="translate(1844.377 762.271)" fill="#ececec"/>
                <rect id="Rectangle_47" data-name="Rectangle 47" width="78.521" height="9.917" transform="translate(1847.329 764.976)" fill="#f84b63"/>
                <g id="Group_3064" data-name="Group 3064">
                  <path id="Path_588" data-name="Path 588" d="M1863.126,764.975h-8.132l-7.66,9.914h8.132Z" opacity="0.1"/>
                  <path id="Path_589" data-name="Path 589" d="M1878.826,764.975h-8.132l-7.672,9.914h8.132Z" opacity="0.1"/>
                  <path id="Path_590" data-name="Path 590" d="M1894.526,764.975h-8.132l-7.672,9.914h8.132Z" opacity="0.1"/>
                  <path id="Path_591" data-name="Path 591" d="M1910.214,764.975h-8.132l-7.672,9.914h8.132Z" opacity="0.1"/>
                  <path id="Path_592" data-name="Path 592" d="M1925.914,764.975h-8.132l-7.672,9.914h8.132Z" opacity="0.1"/>
                  <path id="Path_593" data-name="Path 593" d="M2004.368,774.889v-.1l-.081.1Z" opacity="0.1"/>
                </g>
              </g>
            </g>
          </g>
        </g>
      </g>
      <g id="u5Zjqx-2" data-name="u5Zjqx">
        <g id="Group_3070" data-name="Group 3070">
          <path id="Path_594" data-name="Path 594" d="M2107.461,416.592q-2.331,2.314-4.663,4.63c-.884.88-1.76,1.769-2.644,2.658-12.53-12.161-27.444-18.643-44.907-18.65s-32.379,6.465-45,18.7c-.831-.866-1.664-1.758-2.519-2.627q-2.289-2.326-4.6-4.629a.51.51,0,0,0-.141-.079v-.114c.117-.093.234-.182.344-.28,1.963-1.743,3.874-3.549,5.9-5.22a72.655,72.655,0,0,1,31.713-14.766c2.985-.549,6.015-.831,9.03-1.2,1.028-.127,7.7-.15,7.907-.134,2.052.153,4.111.244,6.158.464a70.013,70.013,0,0,1,16.58,3.96,72.45,72.45,0,0,1,11.217,5.248,70.6,70.6,0,0,1,10.706,7.5c1.68,1.434,3.285,2.95,4.925,4.431Z" fill="#f84b63"/>
          <path id="Path_595" data-name="Path 595" d="M2025.04,438.533c-2.467-2.445-4.881-4.844-7.372-7.311,8.4-8.24,18.317-13.477,29.985-15.052,17.436-2.359,32.405,2.936,45.1,14.949l-7.4,7.365c-8.34-8.094-18.379-12.466-30.145-12.461C2043.459,426.028,2033.438,430.4,2025.04,438.533Z" fill="#f84b63"/>
          <path id="Path_596" data-name="Path 596" d="M2077.988,445.887c-2.43,2.429-4.862,4.859-7.332,7.326a21.8,21.8,0,0,0-30.9.039c-2.456-2.454-4.886-4.885-7.32-7.317C2044.1,433.716,2065.082,432.74,2077.988,445.887Z" fill="#f84b63"/>
        </g>
        <path id="Path_597" data-name="Path 597" d="M2061.833,459.873a6.621,6.621,0,1,1-6.624-6.621A6.623,6.623,0,0,1,2061.833,459.873Z" fill="#f84b63"/>
      </g>
      <g id="Group_3120" data-name="Group 3120">
        <g id="Group_3088" data-name="Group 3088">
          <g id="Group_3079" data-name="Group 3079">
            <g id="Group_3074" data-name="Group 3074">
              <path id="Path_598" data-name="Path 598" d="M1742.461,891.075s-5.786,80.258-5.788,80.315c-.08,15.719.13,29.5.9,36.62a.256.256,0,0,0,.014.115c.29,2.687.658,4.4,1.136,4.861.037.039.054.079.091.1,4.662,3.192,130.256,7.492,134.685,6.167,4.448-1.3,1-14.056-3.737-18.112-4.779-4.057-52.108-27.208-52.108-27.208l5.006-80.223Z" fill="#ffbf9d"/>
              <path id="Path_599" data-name="Path 599" d="M1873.51,1019.252c-4.436,1.329-130.02-2.97-134.69-6.175-.039-.019-.059-.058-.1-.1-.469-.45-.84-2.169-1.133-4.846a.241.241,0,0,1-.02-.117c-.762-7.133-.977-20.908-.9-36.619,0-.039,1-13.932,2.169-30.17L1819.462,945l-1.8,28.939s47.326,23.155,52.094,27.2C1874.506,1005.2,1877.945,1017.943,1873.51,1019.252Z" fill="#ececec"/>
              <g id="Group_3073" data-name="Group 3073">
                <path id="Path_600" data-name="Path 600" d="M1874.065,1019.461c-4.509,1.321-132.061-2.216-136.806-5.471-1.806-1.226-2.22-43.993.348-65.659l82.173,3.207s-.118,22.037.868,22.541c8.071,4.129,45.38,23.3,49.676,26.976C1875.118,1005.183,1878.574,1018.139,1874.065,1019.461Z" fill="#f84b63"/>
                <g id="Group_3072" data-name="Group 3072">
                  <g id="Group_3071" data-name="Group 3071">
                    <path id="Path_601" data-name="Path 601" d="M1872.43,1014.293c-21.347-1.333-107.573-4.694-128.776-4.389-.172,0-.176.119-.005.134,21.13,1.783,107.38,4.446,128.769,4.6C1872.869,1014.646,1872.881,1014.32,1872.43,1014.293Z" fill="#1a2e35"/>
                    <path id="Path_602" data-name="Path 602" d="M1862.3,996.16a17.177,17.177,0,0,0-12.98,4.734c-2.764,2.8-5.189,6.791-5.207,11.228,0,.127.235.139.259.008,1.536-8.315,9.42-15.371,17.919-15.7A.134.134,0,0,0,1862.3,996.16Z" fill="#1a2e35"/>
                    <path id="Path_603" data-name="Path 603" d="M1825.734,975.69c-8.547-.442-18.577,2.2-24.156,8.995-.216.263.161.567.42.446a118.28,118.28,0,0,1,23.844-8.382A.539.539,0,0,0,1825.734,975.69Z" fill="#1a2e35"/>
                    <path id="Path_604" data-name="Path 604" d="M1832.239,978.514c-8.548-.443-18.577,2.2-24.156,8.995-.216.263.161.566.42.445a118.217,118.217,0,0,1,23.844-8.381A.539.539,0,0,0,1832.239,978.514Z" fill="#1a2e35"/>
                    <path id="Path_605" data-name="Path 605" d="M1838.744,981.338c-8.548-.443-18.578,2.2-24.156,8.994-.217.263.161.567.42.445a118.345,118.345,0,0,1,23.844-8.381A.538.538,0,0,0,1838.744,981.338Z" fill="#1a2e35"/>
                    <path id="Path_606" data-name="Path 606" d="M1845.249,984.161c-8.548-.442-18.577,2.2-24.157,8.995-.216.263.161.566.42.445a118.311,118.311,0,0,1,23.844-8.382A.538.538,0,0,0,1845.249,984.161Z" fill="#1a2e35"/>
                    <path id="Path_607" data-name="Path 607" d="M1750.879,956.747c-9.6-.335-10.133,14.578-.521,14.914C1759.955,972,1760.492,957.083,1750.879,956.747Z" fill="#1a2e35"/>
                  </g>
                  <path id="Path_608" data-name="Path 608" d="M1835.826,953.23c-4.175-3.761-9.768-.471-12.568,3.161a38.124,38.124,0,0,0-3.455,5.386,45.956,45.956,0,0,0-4.833,13.925,7.386,7.386,0,0,0-.148,1.111.344.344,0,0,0-.037.285c-.067.312-.1.6-.142.882a.228.228,0,0,0,.279.238,1.109,1.109,0,0,0,.832.855.807.807,0,0,0,.661-.095c1.721-1.091,3.527-2.18,5.334-3.268l.962-.572c4.372-2.669,8.693-5.511,11.959-9.415C1837.52,962.349,1839.808,956.756,1835.826,953.23Zm-11.157,17.764c-1.4.929-2.8,1.83-4.2,2.731-1.343.874-2.685,1.749-3.973,2.682a4.133,4.133,0,0,0-.438.3c-.146.11-.321.219-.468.329.063-.17.124-.311.187-.481,0-.028.03-.056.031-.085,1.332-3.334,2.552-6.729,4.139-9.97.277-.649.612-1.3.946-1.945a48.735,48.735,0,0,1,3.32-5.647c1.972-2.743,10.649-9.6,11.135-.259C1835.616,963.807,1828.261,968.587,1824.669,970.994Z" fill="#1a2e35"/>
                  <path id="Path_609" data-name="Path 609" d="M1816.516,977.551a.246.246,0,0,0,.04-.37c-.167-.177-.334-.325-.5-.473l-.166-.177c-.028-.029-.055-.059-.084-.06-.278-.266-.556-.532-.835-.769a45.212,45.212,0,0,0-18.72-9.814c-4.459-1.052-10.867-.076-11.753,5.475-.848,5.266,4.47,8.146,8.793,8.965a42.046,42.046,0,0,0,13.243.006c3.1-.391,6.206-.9,9.221-1.261h.057A1.045,1.045,0,0,0,1816.516,977.551Zm-12.145.543c-4.3.411-13.028,1.345-16.075-2.81-5.489-7.577,5.529-7.754,8.791-6.853a48.177,48.177,0,0,1,6.166,2.278,119.932,119.932,0,0,1,11.54,6.1h.029c.14.09.281.151.422.242a2.453,2.453,0,0,0-.459.043c-.43.015-.86.031-1.29.075C1810.455,977.423,1807.44,977.816,1804.371,978.094Z" fill="#1a2e35"/>
                </g>
              </g>
            </g>
            <g id="Group_3078" data-name="Group 3078">
              <path id="Path_610" data-name="Path 610" d="M1736.527,936.577l89.787,3.693s4.155-125.364,2.158-178.105c-2.17-57.287-26.779-227.744-26.779-227.744h-74.245s18.978,171.121,19.381,228.434C1747.2,815.985,1736.527,936.577,1736.527,936.577Z" fill="#2b454e"/>
              <g id="Group_3077" data-name="Group 3077">
                <path id="Path_611" data-name="Path 611" d="M1787.107,534.423l-44.6,154.3c-5.28-73.022-15.06-154.3-15.06-154.3Z" fill="#1a2e35"/>
                <path id="Path_612" data-name="Path 612" d="M1741.541,542.822l4.716,50.883,4.366,50.913c2.8,33.954,5.45,67.914,7.47,101.942.5,8.5.8,17.048.676,25.6-.184,8.532-.525,17.05-.957,25.561q-1.314,25.531-3.283,51.008c-1.288,16.988-6.034,67.009-6.034,67.009s3.443-50.119,4.551-67.113c1.073-16.995,2.225-33.986,3.008-50.99.4-8.5.713-17,.867-25.5.092-8.484-.241-16.968-.756-25.467-1.856-33.993-4.54-67.959-7.018-101.929Z" fill="#1a2e35"/>
                <g id="Group_3076" data-name="Group 3076">
                  <g id="Group_3075" data-name="Group 3075">
                    <path id="Path_613" data-name="Path 613" d="M1823.514,923.426c-13.694-.93-9.751-.856-23.455-1.633-6.706-.381-50.778-2.839-57.094-2.1a.146.146,0,0,0-.013.279c6.22,1.333,50.326,3.024,57.038,3.275,13.717.512,9.784.216,23.505.575A.2.2,0,0,0,1823.514,923.426Z" fill="#1a2e35"/>
                  </g>
                </g>
              </g>
            </g>
          </g>
          <g id="Group_3087" data-name="Group 3087">
            <g id="Group_3083" data-name="Group 3083">
              <path id="Path_614" data-name="Path 614" d="M1599.808,845.565s-40.943,69.271-40.971,69.321c-7.076,14.036-13.029,26.468-15.508,33.186a.254.254,0,0,0-.039.11c-.937,2.534-1.372,4.233-1.15,4.857a.494.494,0,0,0,.038.13c2.751,4.936,113.27,64.751,117.825,65.538,4.564.814,7.163-12.136,4.726-17.879-2.47-5.762-34.525-47.578-34.525-47.578l40.23-69.586Z" fill="#ffbf9d"/>
              <path id="Path_615" data-name="Path 615" d="M1660.01,1018.71c-4.563-.787-115.074-60.6-117.827-65.548a.48.48,0,0,1-.044-.13c-.219-.612.214-2.317,1.145-4.844a.243.243,0,0,1,.035-.113c2.5-6.725,8.442-19.153,15.513-33.183.017-.035,7.1-12.028,15.385-26.042l70.495,39.3-14.505,25.106s32.05,41.818,34.516,47.564C1667.163,1006.576,1664.564,1019.514,1660.01,1018.71Z" fill="#ececec"/>
              <g id="Group_3082" data-name="Group 3082">
                <path id="Path_616" data-name="Path 616" d="M1660.414,1019.144c-4.626-.827-117.237-60.832-120.035-65.861-1.07-1.9,17.617-40.372,29.57-58.623l72.135,39.488s-9.926,19.675-9.268,20.565c5.385,7.293,30.245,41.078,32.451,46.287C1667.719,1006.832,1665.039,1019.97,1660.414,1019.144Z" fill="#f84b63"/>
                <g id="Group_3081" data-name="Group 3081">
                  <g id="Group_3080" data-name="Group 3080">
                    <path id="Path_617" data-name="Path 617" d="M1661.253,1013.788c-18.517-10.705-94.21-52.137-113.328-61.312-.155-.075-.211.028-.064.117,18.121,11.012,94.149,51.83,113.225,61.5C1661.488,1014.3,1661.644,1014.014,1661.253,1013.788Z" fill="#1a2e35"/>
                    <path id="Path_618" data-name="Path 618" d="M1660.264,993.041a17.177,17.177,0,0,0-13.73-1.546c-3.721,1.275-7.671,3.767-9.664,7.731-.057.114.148.23.227.123,5.081-6.759,15.283-9.563,23.039-6.073A.134.134,0,0,0,1660.264,993.041Z" fill="#1a2e35"/>
                    <path id="Path_619" data-name="Path 619" d="M1636.651,958.423c-7.455-4.2-17.611-6.308-25.633-2.713-.311.14-.108.58.177.586a118.357,118.357,0,0,1,25.081,3.122A.538.538,0,0,0,1636.651,958.423Z" fill="#1a2e35"/>
                    <path id="Path_620" data-name="Path 620" d="M1641.217,963.849c-7.456-4.205-17.612-6.308-25.634-2.712-.311.139-.108.579.178.586a118.281,118.281,0,0,1,25.08,3.121A.538.538,0,0,0,1641.217,963.849Z" fill="#1a2e35"/>
                    <path id="Path_621" data-name="Path 621" d="M1645.781,969.275c-7.455-4.205-17.611-6.307-25.633-2.712-.311.139-.108.579.178.586a118.238,118.238,0,0,1,25.081,3.122A.538.538,0,0,0,1645.781,969.275Z" fill="#1a2e35"/>
                    <path id="Path_622" data-name="Path 622" d="M1650.347,974.7c-7.456-4.205-17.612-6.307-25.634-2.711-.311.139-.108.578.178.586a118.218,118.218,0,0,1,25.08,3.121A.539.539,0,0,0,1650.347,974.7Z" fill="#1a2e35"/>
                    <path id="Path_623" data-name="Path 623" d="M1578.081,908.108c-8.442-4.576-15.568,8.535-7.113,13.119S1586.536,912.692,1578.081,908.108Z" fill="#1a2e35"/>
                  </g>
                  <path id="Path_624" data-name="Path 624" d="M1655.694,942.812c-2.061-5.227-8.534-4.774-12.66-2.77a38.176,38.176,0,0,0-5.493,3.282,45.965,45.965,0,0,0-10.531,10.312,7.433,7.433,0,0,0-.628.929.344.344,0,0,0-.16.238c-.2.25-.36.489-.52.727a.228.228,0,0,0,.144.337,1.107,1.107,0,0,0,.363,1.136.806.806,0,0,0,.634.21c2.027-.21,4.13-.379,6.232-.549l1.116-.083c5.1-.441,10.238-1.06,14.9-3.1C1653.147,951.731,1657.688,947.743,1655.694,942.812Zm-17.9,10.931c-1.669.208-3.324.39-4.979.573-1.592.184-3.183.368-4.751.63a4.111,4.111,0,0,0-.527.074c-.18.033-.385.053-.565.086.131-.124.249-.223.381-.347.013-.025.052-.037.066-.062,2.678-2.391,5.283-4.887,8.148-7.081.537-.458,1.125-.889,1.713-1.319a48.631,48.631,0,0,1,5.489-3.577c2.988-1.577,13.811-3.848,10.084,4.73C1650.793,952.188,1642.079,953.189,1637.79,953.743Z" fill="#1a2e35"/>
                  <path id="Path_625" data-name="Path 625" d="M1627.569,955.981c.155-.047.248-.16.2-.314-.07-.233-.153-.44-.237-.647l-.07-.232c-.012-.039-.023-.077-.048-.091-.131-.362-.261-.724-.405-1.061a45.215,45.215,0,0,0-12.386-17.127c-3.522-2.929-9.694-4.911-12.961-.336-3.1,4.336.372,9.284,3.876,11.944a42.076,42.076,0,0,0,11.854,5.907c2.95,1.031,5.955,1.963,8.816,2.979l.051.027A1.044,1.044,0,0,0,1627.569,955.981Zm-11.114-4.926c-4.036-1.55-12.262-4.6-13.138-9.68-1.537-9.228,8.405-4.477,10.924-2.217a48.456,48.456,0,0,1,4.505,4.787,120.2,120.2,0,0,1,7.611,10.606l.025.014c.086.143.185.261.27.4a2.624,2.624,0,0,0-.43-.166c-.392-.177-.783-.355-1.188-.507C1622.2,953.165,1619.326,952.174,1616.455,951.055Z" fill="#1a2e35"/>
                </g>
              </g>
            </g>
            <g id="Group_3086" data-name="Group 3086">
              <path id="Path_626" data-name="Path 626" d="M1794.1,534.351a.309.309,0,0,1-.019.077c-.324,1.526-5.516,25.613-10.9,46.3-3.913,15.117-7.94,28.4-10.249,29.775-2.615,1.546-15.365,7.2-19.64,8.97,0,0-28.674,143.137-43.811,187.523-13.968,40.958-53.429,119.19-53.429,119.19l-81.527-45.049s44.817-77.182,51.7-97.122c10.673-30.9,50.67-181.8,50.67-181.8s-.3-47.242,15.6-67.868Z" fill="#2b454e"/>
              <g id="Group_3085" data-name="Group 3085">
                <path id="Path_627" data-name="Path 627" d="M1659.544,907.565c-11.982-6.7-8.449-4.942-20.506-11.5-5.9-3.21-44.691-24.27-50.72-26.3a.146.146,0,0,0-.131.247c5.054,3.863,44.2,24.244,50.166,27.34,12.181,6.326,8.752,4.378,21,10.568A.2.2,0,0,0,1659.544,907.565Z" fill="#1a2e35"/>
                <path id="Path_628" data-name="Path 628" d="M1698.414,589.078c2.3-.589,4.752-.776,7.094-1.147,1.891-.3,3.776-.633,5.647-1.045a24.669,24.669,0,0,0,9.965-4.2c3.244-2.526,4.894-6.357,6.462-10.039q1.4-3.279,2.866-6.525.708-1.577,1.435-3.144a35.843,35.843,0,0,0,1.771-3.773c.06-.185.36-.087.285.086a24.97,24.97,0,0,0-.8,2.717c-.319,1.053-.619,2.112-.946,3.163-.582,1.877-1.15,3.761-1.769,5.626-1.113,3.35-2.1,6.863-3.995,9.876-3.462,5.512-9.652,7.733-15.841,8.514-1.774.224-3.563.35-5.348.452a38.266,38.266,0,0,1-6.761.051A.315.315,0,0,1,1698.414,589.078Z" fill="#1a2e35"/>
                <g id="Group_3084" data-name="Group 3084">
                  <path id="Path_629" data-name="Path 629" d="M1779.716,607.126a166.909,166.909,0,0,0-26.283,12.24.3.3,0,0,0,.245.541c8.854-3.8,17.882-7.44,26.516-11.725A.58.58,0,0,0,1779.716,607.126Z" fill="#1a2e35"/>
                  <path id="Path_630" data-name="Path 630" d="M1782.382,546.483c-.024-.306-.561-.374-.559-.044a295.4,295.4,0,0,1-1.485,29.582c-.412,4.561-4.08,29.764-11.988,27.927-1.324-.308-2-1.611-2.208-3.607-.249-2.4.653-5.343,1.05-7.73.878-5.275,1.583-10.568,2.036-15.9a144.582,144.582,0,0,0-.322-29.815.256.256,0,0,0-.51.029c.012,13.772-.348,27.518-2.408,41.158-.989,6.556-4.291,16.425,2.565,17.434,6.985,1.027,11.5-15.5,12.353-20.026C1783.285,572.874,1783.379,559.25,1782.382,546.483Z" fill="#1a2e35"/>
                  <path id="Path_631" data-name="Path 631" d="M1768.56,604.626a42.449,42.449,0,0,0-1.778,5.225,11.831,11.831,0,0,0-.739,4.293c.03.279.4.306.547.117a15.14,15.14,0,0,0,1.838-4.178c.6-1.616,1.237-3.22,1.793-4.852A.884.884,0,0,0,1768.56,604.626Z" fill="#1a2e35"/>
                </g>
                <path id="Path_632" data-name="Path 632" d="M1594.828,869.907c11.937-22.472,30.695-57.552,36.508-68.667,5.741-10.982,9.635-22.519,13.269-34.33q11.075-36,20.98-72.35t18.6-73c1.457-6.109,3.053-12.216,4.23-18.386,1.223-6.41.855-12.4-.029-18.824a60.275,60.275,0,0,1-.136-17.527,116.279,116.279,0,0,1,4.1-17.125c.925-2.953,1.929-5.879,2.942-8.8a.27.27,0,0,1,.517.157c-3.614,11.83-7.312,23.791-6.535,36.319.373,6.025,1.967,11.937,1.864,18-.1,6.031-1.69,11.944-3.044,17.784q-8.548,36.868-18.372,73.422-9.783,36.558-20.759,72.782c-3.559,11.739-6.886,23.667-11.937,34.874-5.059,11.228-24.174,45.578-37.016,67.517q-2.44,4.17-4.909,8.324C1594.994,870.252,1594.733,870.087,1594.828,869.907Z" fill="#1a2e35"/>
              </g>
            </g>
          </g>
        </g>
        <g id="Group_3119" data-name="Group 3119">
          <g id="Group_3092" data-name="Group 3092">
            <g id="Group_3090" data-name="Group 3090">
              <g id="Group_3089" data-name="Group 3089">
                <path id="Path_633" data-name="Path 633" d="M1753.828,408.908c25.591,14.036,69.21,39.982,86.922,42.05,13.658,1.6,77.943-41.044,97.312-57.722,5.937-5.113-27.44-41.753-34.217-36.872-18.7,13.471-69.316,45.211-71.578,45.611-8.368,1.478-41.887-7.748-71.674-13.476C1727.355,382.108,1741.422,402.1,1753.828,408.908Z" fill="#ffbf9d"/>
              </g>
            </g>
            <g id="Group_3091" data-name="Group 3091">
              <path id="Path_634" data-name="Path 634" d="M1800.356,438.048l20.248-37.625s-50.09-15.507-72.681-13.586-8.609,13.944,2.838,21.834S1800.356,438.048,1800.356,438.048Z" fill="#c8c8c8"/>
              <path id="Path_635" data-name="Path 635" d="M1800.356,438.048l20.248-37.625s-50.09-15.507-72.681-13.586-8.609,13.944,2.838,21.834S1800.356,438.048,1800.356,438.048Z" fill="#f84b63"/>
              <path id="Path_636" data-name="Path 636" d="M1820.555,400.5l-.176.313c-.469-.215-.938-.41-1.426-.586a22.26,22.26,0,0,0-2.169-.821l-2.208-.7c-.743-.215-1.505-.352-2.267-.528l-1.133-.274c-.371-.058-.762-.1-1.153-.156a41.1,41.1,0,0,0-18.348,1.368,73.433,73.433,0,0,0-16.805,7.816c-4.162,2.5-8.148,5.237-12.134,7.992-.2.137-.411.293-.606.41-.137.1-.274.2-.41.274l-.762-.469c.156-.078.293-.2.449-.293.2-.137.41-.274.606-.411,4.084-2.794,8.187-5.608,12.466-8.148a72.784,72.784,0,0,1,17.02-7.757,42.121,42.121,0,0,1,18.055-1.29c5.178,1.426,8.93,2.54,10.376,2.99A6.111,6.111,0,0,1,1820.555,400.5Zm-13.385,23.019c-5.51,1.778-10.845,3.986-16.2,6.116-1.074.41-2.13.84-3.2,1.25l.938.528c.859-.332,1.719-.665,2.579-1.016,5.354-2.15,10.669-4.377,16.121-6.175.156-.059.312-.1.469-.156l.488-.919C1807.952,423.261,1807.561,423.378,1807.17,423.515Zm-44.434-8.6c-.235-.176-.469-.332-.723-.489a22.465,22.465,0,0,0-6.234-3.028c-.449-.118-.918-.235-1.387-.333.606.391,1.27.8,1.935,1.232a23.726,23.726,0,0,1,5.08,2.54c.254.156.489.332.723.488.508.352,1.016.723,1.505,1.114.469.371.938.743,1.387,1.153.879.527,1.759,1.055,2.657,1.583a41.166,41.166,0,0,0-3.634-3.264C1763.615,415.562,1763.185,415.23,1762.736,414.917Z" fill="#fff"/>
              <path id="Path_637" data-name="Path 637" d="M1792.929,432.034c2.35-5.49,5.41-10.753,8.246-16,2.913-5.392,6.181-10.567,9.2-15.895.086-.151.353-.016.273.141-2.738,5.351-5.243,10.8-8.18,16.054a171.725,171.725,0,0,1-9.4,15.775C1793.016,432.174,1792.893,432.117,1792.929,432.034Z" fill="#1a2e35"/>
              <path id="Path_638" data-name="Path 638" d="M1810.746,418.747l-10.4,19.3s-38.143-21.494-49.593-29.388c-6.976-4.807-14.89-11.157-14.89-15.808Z" opacity="0.1"/>
            </g>
          </g>
          <g id="Group_3094" data-name="Group 3094">
            <g id="Group_3093" data-name="Group 3093">
              <path id="Path_639" data-name="Path 639" d="M1680.28,549.148c.3.332,122.113-1.83,123.27-3.168,1.617-1.884-15.417-115.444-32.6-145.744-8.215-14.486-30.714-22.182-43.808.25C1695.825,454.137,1679.2,547.95,1680.28,549.148Z" fill="#f84b63"/>
            </g>
            <path id="Path_640" data-name="Path 640" d="M1803.438,541.85c-.567.039-1.153.078-1.72.078-.39.019-.781.039-1.172.039l-1.172-.059c-.782-.039-1.564-.039-2.345-.117l-2.326-.293a22.942,22.942,0,0,1-2.305-.449,40.928,40.928,0,0,1-4.534-1.192c-1.465-.548-2.931-1.036-4.357-1.72-1.446-.586-2.794-1.368-4.2-2.071-1.329-.8-2.7-1.544-3.986-2.423-1.329-.84-2.58-1.759-3.85-2.658-1.25-.938-2.5-1.856-3.712-2.852q-2.111-1.7-4.162-3.518a4.866,4.866,0,0,1-.489-.449c-3.146-2.755-6.175-5.667-9.2-8.578-4.495-4.3-8.95-8.676-13.835-12.506a51.7,51.7,0,0,0-7.718-5.1c-.547-.293-1.114-.567-1.681-.8a5.846,5.846,0,0,0-.8-.352,23.022,23.022,0,0,0-6.233-1.68c-.762-.039-1.524-.118-2.286-.137l-2.326.078a22.943,22.943,0,0,0-2.325.1l-2.306.234-1.152.137-1.134.2-2.286.43c-1.485.43-3.009.743-4.455,1.31-.645.214-1.309.469-1.935.723a6.436,6.436,0,0,0-.859.351c-1.935.8-3.83,1.739-5.706,2.7-2.6,1.309-5.217,2.618-7.953,3.693.039-.156.078-.332.117-.489,2.6-1.055,5.1-2.344,7.621-3.634,1.739-.9,3.478-1.778,5.276-2.54.273-.137.547-.254.821-.372.8-.351,1.621-.664,2.442-.937,1.466-.587,2.99-.919,4.494-1.368l2.306-.45,1.153-.215,1.172-.136,2.326-.274c.781-.078,1.563-.078,2.344-.117l2.345-.078c.8.019,1.583.078,2.384.117a23.989,23.989,0,0,1,6.7,1.817c.254.137.508.235.762.371.508.215,1,.469,1.485.723a52.568,52.568,0,0,1,7.777,5.237c4.905,3.908,9.321,8.324,13.776,12.662,3.107,3.029,6.214,6.038,9.438,8.91.156.157.332.313.489.45,1.25,1.114,2.52,2.208,3.81,3.263a74.044,74.044,0,0,0,7.5,5.53c1.29.86,2.658,1.6,3.987,2.4,1.387.684,2.755,1.446,4.2,2.033,1.407.644,2.872,1.133,4.338,1.66a44.49,44.49,0,0,0,4.494,1.173c.762.117,1.5.332,2.286.41l2.306.274c.762.078,1.543.078,2.325.117l1.153.039c.391,0,.782-.019,1.172-.039.567-.02,1.114-.039,1.681-.1A3.969,3.969,0,0,1,1803.438,541.85Zm-3.693-27.044c-.1.059-.215.117-.313.176a80.091,80.091,0,0,1-15.808,6.78,61.551,61.551,0,0,1-16.98,2.5c-1,0-1.993-.02-2.99-.079a5.086,5.086,0,0,1-.547-.019A62.021,62.021,0,0,1,1749.6,522a71.775,71.775,0,0,1-8.168-2.775,86.192,86.192,0,0,1-7.816-3.654c-4.709-2.423-9.2-5.217-13.717-8.011-.235-.157-.489-.293-.723-.45l-.469-.293a137.652,137.652,0,0,0-15.085-8.519c-.059-.02-.137-.059-.2-.078a4.264,4.264,0,0,0-.683-.294,42.144,42.144,0,0,0-11.217-3.3,5.072,5.072,0,0,0-.175.684,38.2,38.2,0,0,1,3.908.743,45.161,45.161,0,0,1,6.663,2.247c.215.078.43.176.645.273.254.1.527.215.781.332a136.914,136.914,0,0,1,15.124,8.285c.118.079.235.137.352.215.254.137.489.294.743.43,4.572,2.775,9.144,5.55,13.912,7.973,2.56,1.328,5.2,2.559,7.855,3.654a71.075,71.075,0,0,0,8.188,2.833,62.239,62.239,0,0,0,14.069,2.325,4.988,4.988,0,0,0,.547.02c.84.039,1.661.078,2.5.078a62.919,62.919,0,0,0,17.156-2.364,77.074,77.074,0,0,0,15.984-6.7c.019-.019.059-.019.078-.039C1799.823,515.334,1799.784,515.08,1799.745,514.806Zm-7.328-40.507c-1.328-.605-2.677-1.074-4.045-1.563a45.319,45.319,0,0,0-4.533-1.211c-.781-.137-1.524-.352-2.306-.43l-2.325-.293c-.781-.1-1.563-.078-2.345-.137l-1.172-.039c-.391-.02-.782.019-1.173.019a41.611,41.611,0,0,0-18.055,4.631A72.011,72.011,0,0,0,1741.144,486c-3.732,3.283-7.249,6.8-10.728,10.278l-.547.547L1727.7,499c-2.774,2.755-5.569,5.53-8.519,8.109a2.334,2.334,0,0,0-.352.293c-1.622,1.388-3.283,2.716-5.022,3.948a36.1,36.1,0,0,1-8.089,4.4,23.563,23.563,0,0,1-9.008,1.505,36.9,36.9,0,0,1-9.126-1.27c-.39-.118-.8-.235-1.192-.372-.039.215-.1.43-.136.645.371.137.742.254,1.133.371a38.526,38.526,0,0,0,9.3,1.388l1.192.019,1.172-.058,1.192-.059,1.173-.2,1.172-.2c.391-.078.762-.195,1.153-.293l1.133-.313c.391-.117.743-.273,1.114-.41a36.518,36.518,0,0,0,8.285-4.494,64.53,64.53,0,0,0,5.3-4.182c.117-.1.234-.195.332-.273l1.641-1.466c2.306-2.11,4.533-4.3,6.741-6.507.8-.8,1.583-1.6,2.384-2.4.176-.176.352-.352.508-.528,3.42-3.439,6.839-6.878,10.454-10.082a74.334,74.334,0,0,1,15.105-10.767,41.3,41.3,0,0,1,17.781-4.729c.391,0,.782-.039,1.173-.039l1.153.059c.781.039,1.543.019,2.325.117l2.306.274a23.136,23.136,0,0,1,2.286.41,44.378,44.378,0,0,1,4.494,1.153c1.446.527,2.873,1,4.26,1.641C1792.476,474.553,1792.456,474.436,1792.417,474.3Zm-18.387-67.745c-4.123,2.481-8.07,5.178-12.017,7.874-.2.137-.411.274-.606.411-.84.586-1.7,1.153-2.54,1.739a113.93,113.93,0,0,1-15.906,9.594c-1,.469-2.032.879-3.048,1.27-.215.078-.43.156-.625.235a30.649,30.649,0,0,1-5.1,1.348,23.931,23.931,0,0,1-9.126-.2,36.129,36.129,0,0,1-8.734-2.911c-.508-.254-1.016-.528-1.505-.821-.1.2-.176.391-.254.587.469.293.958.566,1.446.82a36.821,36.821,0,0,0,8.891,3.068l1.153.254,1.192.156,1.172.157,1.192.039,1.173.019c.41-.019.8-.058,1.192-.1l1.192-.1c.39-.039.762-.137,1.152-.2a32.618,32.618,0,0,0,5.765-1.563c.215-.078.43-.156.645-.254.859-.332,1.719-.684,2.559-1.074a72.876,72.876,0,0,0,8.227-4.495c2.657-1.641,5.256-3.38,7.816-5.158.938-.645,1.856-1.27,2.794-1.935.195-.117.41-.273.606-.41,3.81-2.618,7.62-5.256,11.587-7.66Zm8.715,26.144c-1.114.391-2.247.743-3.381,1.075a3.477,3.477,0,0,1-.488.137c-1.407.41-2.833.782-4.26,1.075a37.2,37.2,0,0,1-16.98-.02,45.194,45.194,0,0,1-15.867-6.272,12.013,12.013,0,0,1-1.035-.7c-.294-.176-.548-.351-.821-.547-4.084-2.872-7.836-6.272-12.31-8.656a42.137,42.137,0,0,0-8.031-3.439,1.772,1.772,0,0,0-.254-.078.85.85,0,0,0-.059.136.149.149,0,0,0-.039.1c.117.039.215.059.332.1,1.348.508,2.7,1,4.025,1.583a41.226,41.226,0,0,1,3.83,1.934c4.3,2.345,7.914,5.667,11.881,8.559.273.2.527.39.8.566.449.332.9.626,1.368.938a46.161,46.161,0,0,0,16.022,6.527,37.565,37.565,0,0,0,17.313.078c1.544-.332,3.087-.7,4.592-1.153.156-.039.332-.1.488-.137,1.036-.313,2.072-.645,3.088-1C1782.9,433.226,1782.823,432.952,1782.745,432.7Zm2.423,9.262c-1.075-1.5-2.15-3.009-3.2-4.513-.7-.977-1.387-1.974-2.091-2.951-.156-.234-.332-.488-.508-.723-2.735-3.869-5.51-7.7-8.617-11.294a50.655,50.655,0,0,0-6.7-6.566c-.43-.351-.86-.683-1.309-1-.235-.176-.469-.332-.723-.489a22.465,22.465,0,0,0-6.234-3.028c-.762-.2-1.524-.391-2.305-.567l-2.326-.332c-.762-.1-1.543-.254-2.325-.313l-2.345-.176-1.172-.078-1.172.02h-2.345a46.841,46.841,0,0,0-4.67.527,65.788,65.788,0,0,0-9.106,2.208c-2.814.86-5.647,1.661-8.539,2.267-.059.1-.1.2-.156.313a.85.85,0,0,0-.059.136l.313-.058c2.892-.567,5.744-1.368,8.578-2.189a66.1,66.1,0,0,1,9.047-2.149,46.163,46.163,0,0,1,4.611-.469h3.478l1.173.1,2.306.175c.762.059,1.524.215,2.3.333l2.286.351c.743.176,1.486.372,2.228.547a23.843,23.843,0,0,1,5.823,2.795c.254.156.489.332.723.488.508.352,1.016.723,1.505,1.114a50.438,50.438,0,0,1,6.663,6.429c3.068,3.5,5.842,7.249,8.578,11.04.156.234.332.488.508.723.742,1.016,1.465,2.052,2.208,3.068,1.27,1.778,2.56,3.556,3.849,5.334C1785.363,442.664,1785.266,442.312,1785.168,441.96Z" fill="#fff"/>
          </g>
          <g id="Group_3107" data-name="Group 3107">
            <g id="Group_3106" data-name="Group 3106">
              <g id="Group_3096" data-name="Group 3096">
                <g id="Group_3095" data-name="Group 3095">
                  <path id="Path_641" data-name="Path 641" d="M1762.763,409.838c-5.4.634-17.4-8.682-22.42-16.9-.341-.565.26-6.7.638-14.2.211-4.549.339-9.619.122-14.255l29.4,5.7s-2.4,9.85-1.974,17.929a10.343,10.343,0,0,0,.289,1.892c.014.088.044.192.057.313C1769.635,393.9,1771.225,408.843,1762.763,409.838Z" fill="#ffbf9d"/>
                </g>
                <path id="Path_642" data-name="Path 642" d="M1741.035,377.431c6.276,8.492,15.692,16.64,28.158,14.694-.114-.764-.21-1.375-.309-1.812a1.958,1.958,0,0,1-.058-.306,8.491,8.491,0,0,1-.285-1.9c-.432-8.082,1.959-17.928,1.959-17.928l-29.4-5.693C1741.314,368.669,1741.214,373.236,1741.035,377.431Z" fill="#1a2e35"/>
              </g>
              <g id="Group_3105" data-name="Group 3105">
                <g id="Group_3097" data-name="Group 3097">
                  <path id="Path_643" data-name="Path 643" d="M1733.334,331.408c-2.642,10.461,4.255,39.969,11.911,46.25,11.1,9.105,28.542,9.175,36.095-4,7.321-12.77-2.349-51.068-10.832-56.7C1758.013,308.661,1737.236,315.956,1733.334,331.408Z" fill="#ffbf9d"/>
                </g>
                <g id="Group_3103" data-name="Group 3103">
                  <g id="Group_3098" data-name="Group 3098">
                    <path id="Path_644" data-name="Path 644" d="M1762.517,346.494c-.036-.07-.128.136-.1.216.6,1.951.965,4.287-.636,5.43-.05.035-.017.132.047.1C1763.914,351.342,1763.4,348.246,1762.517,346.494Z" fill="#1a2e35"/>
                    <path id="Path_645" data-name="Path 645" d="M1760.194,344.922c-3.231.63-1.734,7.047,1.26,6.463C1764.4,350.811,1762.9,344.394,1760.194,344.922Z" fill="#1a2e35"/>
                  </g>
                  <g id="Group_3099" data-name="Group 3099">
                    <path id="Path_646" data-name="Path 646" d="M1774.177,343.345c0-.08.177.057.194.139.4,2,1.2,4.228,3.149,4.469.061.007.078.109.009.115C1775.263,348.271,1774.236,345.306,1774.177,343.345Z" fill="#1a2e35"/>
                    <path id="Path_647" data-name="Path 647" d="M1775.468,340.855c3.14-.989,4.886,5.365,1.977,6.28C1774.582,348.037,1772.835,341.683,1775.468,340.855Z" fill="#1a2e35"/>
                  </g>
                  <path id="Path_648" data-name="Path 648" d="M1756.977,342.579a25.458,25.458,0,0,0,2.281-1.456c.869-.568,1.62-.93,2.043-1.927a1.393,1.393,0,0,0-.6-1.591,3.455,3.455,0,0,0-3.473.444,5.069,5.069,0,0,0-2.349,2.8A1.486,1.486,0,0,0,1756.977,342.579Z" fill="#1a2e35"/>
                  <path id="Path_649" data-name="Path 649" d="M1777.117,337.834a25.678,25.678,0,0,1-2.7-.067,4.373,4.373,0,0,1-2.745-.594,1.393,1.393,0,0,1-.309-1.673,3.454,3.454,0,0,1,3.2-1.414,5.072,5.072,0,0,1,3.461,1.184A1.487,1.487,0,0,1,1777.117,337.834Z" fill="#1a2e35"/>
                  <path id="Path_650" data-name="Path 650" d="M1764.984,365.372c.585.355,1.209.885,1.945.777a5.378,5.378,0,0,0,2.019-1,.072.072,0,0,1,.11.082,2.746,2.746,0,0,1-2.271,1.668,2.174,2.174,0,0,1-1.974-1.393C1764.756,365.4,1764.9,365.321,1764.984,365.372Z" fill="#1a2e35"/>
                  <g id="Group_3101" data-name="Group 3101">
                    <g id="Group_3100" data-name="Group 3100">
                      <path id="Path_651" data-name="Path 651" d="M1765.685,358.933a6.949,6.949,0,0,0,5.22,1.958,8.752,8.752,0,0,0,2.46-.457,2.467,2.467,0,0,0,.453-.162c.141-.051.268-.1.42-.168a.509.509,0,0,0,.295-.538l0-.015a.975.975,0,0,0-.066-.2l0-.015-.045-.173c-.315-1.54-1.007-3.833-1.007-3.833.625.149,3.775.767,3.543-.023-1.94-6.527-4.1-13.785-7.405-19.87a.189.189,0,0,0-.351.135c1.616,6.347,4.337,12.367,6.062,18.716a12.177,12.177,0,0,0-3.421-.224c-.2.113,1.416,4.407,1.5,5.11a.245.245,0,0,1,0,.076c-2.494.929-4.614.6-7.514-.54C1765.654,358.633,1765.528,358.8,1765.685,358.933Z" fill="#1a2e35"/>
                    </g>
                  </g>
                  <g id="Group_3102" data-name="Group 3102">
                    <path id="Path_652" data-name="Path 652" d="M1772.282,359.869a8.253,8.253,0,0,1-2.634,3.242,3.712,3.712,0,0,1-2.162.648c-1.685-.046-2.065-1.493-2.064-2.808a8.883,8.883,0,0,1,.266-2.074A10.679,10.679,0,0,0,1772.282,359.869Z" fill="#1a2e35"/>
                    <path id="Path_653" data-name="Path 653" d="M1769.648,363.111a3.712,3.712,0,0,1-2.162.648c-1.685-.046-2.065-1.493-2.064-2.808C1767.164,360.729,1769.118,361.491,1769.648,363.111Z" fill="#ff99bc"/>
                  </g>
                </g>
                <path id="Path_654" data-name="Path 654" d="M1735.094,356.458c-1.158-2.56-12.475-30.322-12.195-33.58.255-2.967,3.563-2.276,3.585-2.447.024-.191-.282-2.792,1.184-4.014,1.3-1.079,3.505-.472,3.505-.472s.071-2.824,1.687-3.834a3.533,3.533,0,0,1,3.49.211s.169-2.734,2.26-3.7a3.022,3.022,0,0,1,3.531.758s.332-2.735,2.06-3.517,3.58.917,3.58.917.633-2.54,2.811-2.906c2.23-.375,3.4,1.9,3.4,1.9s.945-2.509,2.993-2.883,3.153,2.081,3.153,2.081.49-2.417,2.448-2.563,2.832,2.493,2.832,2.493a1.943,1.943,0,0,1,2.507-1.755c3.67.6,8,18.641,9.909,25.78,0,0-2.257-5.258-3.76-5.16s-2.254,2.632-4.925,3.667c-3.808,1.475-11.077-2.145-16.333-.152-5.107,1.937-8.172,8.084-8.806,16.668C1743.3,353.622,1737.843,362.534,1735.094,356.458Z" fill="#1a2e35"/>
                <g id="Group_3104" data-name="Group 3104">
                  <path id="Path_655" data-name="Path 655" d="M1740.883,355.363s-7.388-9.153-11.587-6.454,1.821,16.291,7.076,17.845a5.223,5.223,0,0,0,6.788-3.283Z" fill="#ffbf9d"/>
                  <path id="Path_656" data-name="Path 656" d="M1731.118,352.762a.071.071,0,0,0-.017.139c3.693,1.207,5.813,4.408,7.376,7.77-1.16-1.256-2.665-1.883-4.358-.489-.088.073.011.214.111.185a3.211,3.211,0,0,1,3.6.875,15.518,15.518,0,0,1,1.886,2.736c.191.31.759.1.611-.263-.011-.027-.024-.054-.035-.081C1740.07,359.048,1736.068,352.884,1731.118,352.762Z" fill="#1a2e35"/>
                </g>
              </g>
            </g>
            <path id="Path_657" data-name="Path 657" d="M1770.692,394.371a.047.047,0,0,0-.092.023c1.268,5.64,3.834,18.774-5.226,19.407-3.649.254-7.291-1.464-10.384-3.225a50.9,50.9,0,0,1-8.816-6.468,74.8,74.8,0,0,1-8.643-8.734c-.108-.135-.308.057-.194.191,2.678,3.139,5.026,6.472,8.006,9.358a44.225,44.225,0,0,0,9.546,7.193c3.295,1.79,7.149,3.47,10.985,3.018,3.649-.43,5.928-3.092,6.453-6.609C1773.016,403.9,1772.117,398.767,1770.692,394.371Z" fill="#1a2e35"/>
          </g>
          <g id="Group_3111" data-name="Group 3111">
            <rect id="Rectangle_48" data-name="Rectangle 48" width="275.128" height="219.479" transform="translate(1774.163 375.797) rotate(-5.329)" fill="#1a2e35"/>
            <g id="Group_3110" data-name="Group 3110">
              <g id="Group_3108" data-name="Group 3108">
                <rect id="Rectangle_49" data-name="Rectangle 49" width="16.279" height="11.449" transform="translate(1787.455 385.7) rotate(-5.328)" fill="#fff"/>
                <rect id="Rectangle_50" data-name="Rectangle 50" width="16.279" height="11.449" transform="matrix(0.996, -0.093, 0.093, 0.996, 1789.612, 408.83)" fill="#fff"/>
                <rect id="Rectangle_51" data-name="Rectangle 51" width="16.279" height="11.449" transform="matrix(0.996, -0.093, 0.093, 0.996, 1791.77, 431.959)" fill="#fff"/>
                <rect id="Rectangle_52" data-name="Rectangle 52" width="16.279" height="11.449" transform="translate(1793.927 455.089) rotate(-5.328)" fill="#fff"/>
                <rect id="Rectangle_53" data-name="Rectangle 53" width="16.279" height="11.449" transform="matrix(0.996, -0.093, 0.093, 0.996, 1796.084, 478.219)" fill="#fff"/>
                <rect id="Rectangle_54" data-name="Rectangle 54" width="16.279" height="11.449" transform="matrix(0.996, -0.093, 0.093, 0.996, 1798.242, 501.348)" fill="#fff"/>
                <rect id="Rectangle_55" data-name="Rectangle 55" width="16.279" height="11.449" transform="translate(1800.399 524.478) rotate(-5.329)" fill="#fff"/>
                <rect id="Rectangle_56" data-name="Rectangle 56" width="16.279" height="11.449" transform="matrix(0.996, -0.093, 0.093, 0.996, 1802.557, 547.607)" fill="#fff"/>
                <rect id="Rectangle_57" data-name="Rectangle 57" width="16.279" height="11.449" transform="translate(1804.714 570.737) rotate(-5.329)" fill="#fff"/>
              </g>
              <g id="Group_3109" data-name="Group 3109">
                <rect id="Rectangle_58" data-name="Rectangle 58" width="16.279" height="11.449" transform="matrix(0.996, -0.093, 0.093, 0.996, 2020.663, 363.948)" fill="#fff"/>
                <rect id="Rectangle_59" data-name="Rectangle 59" width="16.279" height="11.449" transform="matrix(0.996, -0.093, 0.093, 0.996, 2022.82, 387.078)" fill="#fff"/>
                <rect id="Rectangle_60" data-name="Rectangle 60" width="16.279" height="11.449" transform="matrix(0.996, -0.093, 0.093, 0.996, 2024.977, 410.208)" fill="#fff"/>
                <rect id="Rectangle_61" data-name="Rectangle 61" width="16.279" height="11.449" transform="matrix(0.996, -0.093, 0.093, 0.996, 2027.135, 433.337)" fill="#fff"/>
                <rect id="Rectangle_62" data-name="Rectangle 62" width="16.279" height="11.449" transform="matrix(0.996, -0.093, 0.093, 0.996, 2029.292, 456.467)" fill="#fff"/>
                <rect id="Rectangle_63" data-name="Rectangle 63" width="16.279" height="11.449" transform="matrix(0.996, -0.093, 0.093, 0.996, 2031.449, 479.596)" fill="#fff"/>
                <rect id="Rectangle_64" data-name="Rectangle 64" width="16.279" height="11.449" transform="matrix(0.996, -0.093, 0.093, 0.996, 2033.607, 502.726)" fill="#fff"/>
                <rect id="Rectangle_65" data-name="Rectangle 65" width="16.279" height="11.449" transform="matrix(0.996, -0.093, 0.093, 0.996, 2035.764, 525.856)" fill="#fff"/>
                <rect id="Rectangle_66" data-name="Rectangle 66" width="16.279" height="11.449" transform="translate(2037.922 548.985) rotate(-5.328)" fill="#fff"/>
              </g>
            </g>
          </g>
          <g id="Group_3115" data-name="Group 3115">
            <path id="Path_658" data-name="Path 658" d="M1749.978,423.546c5.29,15.332,25.9,77.433,28.951,80.249,12.375,11.41,43.512,31.406,47.318,35.549,5.193,5.652-18.187,40.476-26.344,39.5-3.375-.4-45.049-27.819-57.959-41.262-10.4-10.83-15.813-80.159-16.127-112.388C1725.547,397.536,1739.734,393.857,1749.978,423.546Z" fill="#ffbf9d"/>
            <g id="Group_3113" data-name="Group 3113">
              <path id="Path_659" data-name="Path 659" d="M1726.463,477.476l42.633-2.835s-13.473-50.675-27.1-68.793-16.387.115-16.99,14S1726.463,477.476,1726.463,477.476Z" fill="#f84b63"/>
              <path id="Path_660" data-name="Path 660" d="M1768.324,471.779a40.469,40.469,0,0,0-10.766,3.634l-1.525.1c.137-.1.294-.156.43-.235a43.133,43.133,0,0,1,11.724-3.986C1768.227,471.466,1768.285,471.622,1768.324,471.779Zm-17.41-49.945a78.237,78.237,0,0,1-7.953,4.338c-1,.469-2.032.879-3.048,1.27-.215.078-.43.156-.625.235a30.649,30.649,0,0,1-5.1,1.348,23.931,23.931,0,0,1-9.126-.2c-.058-.019-.1-.019-.156-.039v.782l1.153.254,1.192.156,1.172.157,1.192.039,1.173.019c.41-.019.8-.058,1.192-.1l1.192-.1c.39-.039.762-.137,1.152-.2a32.618,32.618,0,0,0,5.765-1.563c.215-.078.43-.156.645-.254.859-.332,1.719-.684,2.559-1.074a71.314,71.314,0,0,0,7.953-4.338C1751.129,422.323,1751.012,422.069,1750.914,421.834Zm5.3,12.818a43.968,43.968,0,0,1-14.44-5.959,12.013,12.013,0,0,1-1.035-.7c-.294-.176-.548-.351-.821-.547-4.084-2.872-7.836-6.272-12.31-8.656-.8-.45-1.622-.879-2.462-1.27-.02.117-.02.254-.04.391a21.464,21.464,0,0,1,2.306,1.211c4.3,2.345,7.914,5.667,11.881,8.559.273.2.527.39.8.566.449.332.9.626,1.368.938a44.856,44.856,0,0,0,15.065,6.292C1756.424,435.2,1756.327,434.926,1756.209,434.652Zm-11.47-24.718-.6.02h-2.345a46.841,46.841,0,0,0-4.67.527,65.788,65.788,0,0,0-9.106,2.208c-.86.254-1.7.508-2.56.762a4.247,4.247,0,0,0-.039.489c.918-.254,1.837-.528,2.736-.782a66.1,66.1,0,0,1,9.047-2.149,46.163,46.163,0,0,1,4.611-.469h3.283C1744.974,410.325,1744.857,410.13,1744.739,409.934Z" fill="#fff"/>
              <g id="Group_3112" data-name="Group 3112">
                <path id="Path_661" data-name="Path 661" d="M1727.612,467.989c5.9-.926,11.985-1.129,17.94-1.516,6.115-.4,12.236-.378,18.354-.651.172-.008.2.29.025.306-5.988.522-11.937,1.3-17.947,1.6a171.76,171.76,0,0,1-18.359.416C1727.54,468.137,1727.523,468,1727.612,467.989Z" fill="#1a2e35"/>
                <path id="Path_662" data-name="Path 662" d="M1723.189,441.48c.428,2.569.872,5.134,1.353,7.693-.067-5.342-.082-10.69.1-16.019a.122.122,0,0,1,.241,0c.573,7.416.9,14.88,1.16,22.314.255,7.147.717,14.4.469,21.558.534.045,1.067.092,1.6.119a.218.218,0,0,1,.005.43c-.658.069-1.313.162-1.969.251a.422.422,0,0,1-.471-.354c-.867-7.362-.911-14.944-1.067-22.35-.025-1.213-.026-2.43-.046-3.645a90.751,90.751,0,0,1-1.777-9.937A.2.2,0,0,1,1723.189,441.48Z" fill="#1a2e35"/>
                <path id="Path_663" data-name="Path 663" d="M1767.533,474.745l1.555-.231-.114.164c-1.21-3.147-2.289-6.333-3.388-9.514q-1.595-4.787-3.048-9.617c-.958-3.223-1.914-6.447-2.759-9.7-.868-3.25-1.707-6.509-2.405-9.811,1.255,3.133,2.37,6.308,3.455,9.493,1.109,3.178,2.107,6.389,3.1,9.6q1.47,4.826,2.814,9.688c.854,3.255,1.729,6.5,2.472,9.792l.038.166-.152,0Z" fill="#1a2e35"/>
                <path id="Path_664" data-name="Path 664" d="M1761.078,439.635a22.087,22.087,0,0,1,.746,4.81,21.783,21.783,0,0,1-.231,4.862,21.785,21.785,0,0,1-.744-4.81A22.024,22.024,0,0,1,1761.078,439.635Z" fill="#1a2e35"/>
              </g>
            </g>
            <g id="Group_3114" data-name="Group 3114">
              <path id="Path_665" data-name="Path 665" d="M1846.74,558.718c-1.89-2.587-.545-3.6,4.939-2.058,5.552,1.544,25.886,12.28,29.031,4.846,3.171-7.453-25.856-22.174-35.185-24.036-9.326-1.884-25.071-1.6-25.071-1.6C1825.524,539.867,1836.9,550.743,1846.74,558.718Z" fill="#ffbf9d"/>
              <path id="Path_666" data-name="Path 666" d="M1795.265,576.2c14.7,13.057,32.328,25.017,52.762,27.058a10.17,10.17,0,0,0,6.515-1.379c9.142,1.077,12.4-2.916,12.4-2.916,8.824-1.6,11.59-6.146,11.59-6.146s7.44-.038,7.793-5.243c.343-5.049-11.489-9.128-19.935-14.453-19.349-12.2-40.7-33.181-45.932-37.255Z" fill="#ffbf9d"/>
              <path id="Path_667" data-name="Path 667" d="M1839.861,576.361c5.766,3.477,11.339,7.043,17.546,9.721,6.81,2.939,13.856,4.624,20.987,6.519a.179.179,0,0,1-.066.351c-13.451-1.386-28.129-7.854-38.629-16.332C1839.445,576.415,1839.572,576.185,1839.861,576.361Z" fill="#1a2e35"/>
              <path id="Path_668" data-name="Path 668" d="M1830.8,586.968c5.8,3.073,16.022,8.407,36.176,11.779.066.011.069.127-.005.124a69.8,69.8,0,0,1-36.317-11.626C1830.307,587.022,1830.414,586.765,1830.8,586.968Z" fill="#1a2e35"/>
              <path id="Path_669" data-name="Path 669" d="M1826.036,592.761c10.058,4.848,17.013,6.632,28.471,9.063.065.013.059.13-.015.122-13.311-1.395-17.981-3.41-28.671-8.863C1825.454,592.9,1825.644,592.571,1826.036,592.761Z" fill="#1a2e35"/>
            </g>
          </g>
          <g id="Group_3118" data-name="Group 3118">
            <g id="Group_3117" data-name="Group 3117">
              <path id="Path_670" data-name="Path 670" d="M1898.646,355.087c7.344-3.524,16.445-12.355,22.453-13.1a6.943,6.943,0,0,1,7.35,3.825s2.966-6.009,8.529-5.788c2.863.115,5.2,4.788,5.2,4.788s2.587-4.712,7.522-4.21c3.932.4,5.681,5.023,5.681,5.023s4.588-3.363,8.463-1.671c7.858,3.432,8,37.358-4.477,42.65-5.814,2.467-5.4-5.822-5.4-5.822s-3.476,11.775-10.47,11.983-5.8-10.528-5.8-10.528-3.469,11.38-10.741,10.865c-7.571-.538-4.541-11.073-4.541-11.073s-5.084,7.565-10.56,5.895c-9.045-2.758,2.255-17.089.454-24.537l-12.311-4.064Z" fill="#ffbf9d"/>
              <path id="Path_671" data-name="Path 671" d="M1909.306,348.242c-7.244,2.729-16.24-6.22-23.542-4.606-9.878,2.184-.141,13.271,14.228,15.686l11.484-.086Z" fill="#ffbf9d"/>
              <g id="Group_3116" data-name="Group 3116">
                <path id="Path_672" data-name="Path 672" d="M1955.759,346.315a.089.089,0,0,1,.175-.035c2.766,11.148,2.388,24.244-1.938,34.958-.142.351-.775.273-.693-.144C1955.65,369.2,1956.785,358.454,1955.759,346.315Z" fill="#1a2e35"/>
                <path id="Path_673" data-name="Path 673" d="M1942.244,344.646c-.011-.132.207-.153.24-.015,2.787,11.5,1.956,26.241-4.485,38-.22.4-.823.544-.6.06C1941.084,374.548,1943.223,355.57,1942.244,344.646Z" fill="#1a2e35"/>
                <path id="Path_674" data-name="Path 674" d="M1921.67,382.738c5.739-11.517,7.208-23.715,6.917-36.461,0-.166.232-.155.272-.017,1.842,6.2,1.181,14.341.131,20.633a33.923,33.923,0,0,1-6.917,16.046C1921.926,383.125,1921.548,382.985,1921.67,382.738Z" fill="#1a2e35"/>
              </g>
            </g>
          </g>
        </g>
      </g>
    </g>
  </g>
</svg>
