<svg xmlns="http://www.w3.org/2000/svg" width="76.472" height="76.473" viewBox="0 0 76.472 76.473">
  <g id="Group_67" data-name="Group 67" transform="translate(-947.968 -5909.893)">
    <path id="Path_113" data-name="Path 113" d="M1006.846,5944.643,996.3,5932.85l-5.569-6.231a6.669,6.669,0,0,0-9.945,0l-5.57,6.231-10.52,11.793h0v20.551a6.669,6.669,0,0,0,6.67,6.668H979.2v-13.532a1.584,1.584,0,0,1,1.584-1.583H990.7a1.585,1.585,0,0,1,1.584,1.584v13.532h7.9a6.67,6.67,0,0,0,6.67-6.67v-20.549Z" fill="#393d4a"/>
    <path id="Path_114" data-name="Path 114" d="M998.468,5986.366H973.94a26,26,0,0,1-25.972-25.973v-24.528a26,26,0,0,1,25.972-25.972h24.528a26,26,0,0,1,25.972,25.973v24.527a26,26,0,0,1-25.972,25.973Zm-24.528-73.473a23,23,0,0,0-22.972,22.973v24.527a23,23,0,0,0,22.972,22.973h24.528a23,23,0,0,0,22.972-22.973v-24.528a23,23,0,0,0-22.972-22.972Z" fill="#393d4a"/>
  </g>
</svg>
