<svg xmlns="http://www.w3.org/2000/svg" width="76.473" height="76.473" viewBox="0 0 76.473 76.473">
  <g id="Group_70" data-name="Group 70" transform="translate(-275.489 -5910.583)">
    <path id="Path_109" data-name="Path 109" d="M325.989,5987.055H301.462a26,26,0,0,1-25.973-25.972v-24.528a26,26,0,0,1,25.973-25.972h24.527a26,26,0,0,1,25.973,25.972v24.528a26,26,0,0,1-25.973,25.973Zm-24.527-73.472a23,23,0,0,0-22.973,22.973v24.527a23,23,0,0,0,22.973,22.973h24.527a23,23,0,0,0,22.973-22.972v-24.528a23,23,0,0,0-22.973-22.973Z" fill="#393d4a"/>
    <g id="Group_54" data-name="Group 54">
      <path id="Path_110" data-name="Path 110" d="M313.744,5948.2a11.187,11.187,0,1,0-7.907-3.276A10.82,10.82,0,0,0,313.744,5948.2Zm0,0" fill="#393d4a"/>
      <path id="Path_111" data-name="Path 111" d="M333.312,5961.539a27.618,27.618,0,0,0-.377-2.933,23.15,23.15,0,0,0-.721-2.951A14.578,14.578,0,0,0,331,5952.9a10.372,10.372,0,0,0-1.828-2.383,8.058,8.058,0,0,0-2.627-1.65,9.077,9.077,0,0,0-3.353-.606,3.4,3.4,0,0,0-1.818.771c-.545.355-1.182.766-1.894,1.221a10.8,10.8,0,0,1-2.45,1.08,9.5,9.5,0,0,1-5.992,0,10.849,10.849,0,0,1-2.449-1.079c-.7-.451-1.342-.861-1.9-1.222a3.4,3.4,0,0,0-1.817-.771,9.087,9.087,0,0,0-3.353.608,8.046,8.046,0,0,0-2.627,1.649,10.41,10.41,0,0,0-1.828,2.383,14.578,14.578,0,0,0-1.212,2.75,23.147,23.147,0,0,0-.722,2.95,27.747,27.747,0,0,0-.376,2.935c-.061.889-.092,1.811-.092,2.743a7.713,7.713,0,0,0,2.289,5.833,8.248,8.248,0,0,0,5.9,2.152h22.357a8.247,8.247,0,0,0,5.9-2.152,7.707,7.707,0,0,0,2.29-5.833c0-.936-.031-1.858-.093-2.744Zm0,0" fill="#393d4a"/>
    </g>
  </g>
</svg>
