<!-- Generator: Adobe Illustrator 25.0.1, SVG Export Plug-In  -->
<svg version="1.1" xmlns="http://www.w3.org/2000/svg" xmlns:xlink="http://www.w3.org/1999/xlink" x="0px" y="0px" width="121.4px"
    height="121.4px" viewBox="0 0 121.4 121.4" style="overflow:visible;enable-background:new 0 0 121.4 121.4;"
    xml:space="preserve">
<style type="text/css">
	.st0{fill:#383D48;}
	.st1{fill:#FFFFFF;}
</style>
    <defs>
</defs>
    <g>
	<path class="st0" d="M46.7,121.4h28c25.8,0,46.7-20.9,46.7-46.7v-28C121.4,20.9,100.5,0,74.7,0l-28,0C20.9,0,0,20.9,0,46.7l0,28
		C0,100.5,20.9,121.4,46.7,121.4z"/>
        <g>
		<path class="st1" d="M60.7,29.7c2.5,0,4.5,0.8,6.2,2.5c1.6,1.7,2.5,3.8,2.5,6.4v12.7h12.9c3,0,5.4,0.8,7.1,2.4
			c1.7,1.6,2.5,3.8,2.5,6.4c0,6-3.2,9.1-9.6,9.1H69.3v13.5c0,2.5-0.8,4.6-2.4,6.3c-1.6,1.8-3.7,2.6-6.1,2.6c-2.8,0-5-0.8-6.6-2.5
			c-1.6-1.7-2.4-3.8-2.4-6.5V69.3H39c-2.9,0-5.2-0.8-6.8-2.3c-1.7-1.5-2.5-3.8-2.5-6.8c0-2.8,0.9-5,2.6-6.5c1.7-1.5,4-2.3,6.8-2.3
			h12.8V38.6c0-2.8,0.8-5,2.3-6.6C55.7,30.5,57.9,29.7,60.7,29.7z"/>
	</g>
</g>
</svg>
