<svg xmlns="http://www.w3.org/2000/svg" width="121.421" height="121.422" viewBox="0 0 121.421 121.422">
  <g id="plus" transform="translate(-4570 1658.896)">
    <rect id="Rectangle_386" data-name="Rectangle 386" width="121.422" height="121.422" rx="46.728" transform="translate(4570 -1658.896)" fill="#383d48"/>
    <path id="Path_6195" data-name="Path 6195" d="M1011.117,3533.63a8.267,8.267,0,0,1,6.162,2.53,8.8,8.8,0,0,1,2.475,6.423v12.747H1032.6a9.8,9.8,0,0,1,7.057,2.42,8.492,8.492,0,0,1,2.527,6.424q0,9.06-9.584,9.058h-12.851v13.483a9,9,0,0,1-2.422,6.319,7.938,7.938,0,0,1-6.109,2.635,8.681,8.681,0,0,1-6.583-2.475,8.98,8.98,0,0,1-2.37-6.479v-13.483H989.42a9.878,9.878,0,0,1-6.847-2.264q-2.527-2.261-2.528-6.794a8.32,8.32,0,0,1,2.581-6.529,9.782,9.782,0,0,1,6.794-2.315h12.85v-12.747a9.014,9.014,0,0,1,2.317-6.583A8.717,8.717,0,0,1,1011.117,3533.63Z" transform="translate(3619.594 -5162.835)" fill="#fff"/>
  </g>
</svg>
